<?xml version="1.0" encoding="UTF-8"?>
<!-- Generator: visioncortex VTracer 0.6.1 -->
<svg version="1.1" xmlns="http://www.w3.org/2000/svg" width="1280" height="1280">
<path d="M0 0 C422.4 0 844.8 0 1280 0 C1280 422.4 1280 844.8 1280 1280 C857.6 1280 435.2 1280 0 1280 C0 857.6 0 435.2 0 0 Z " fill="#F5F5F5" transform="translate(0,0)"/>
<path d="M0 0 C422.4 0 844.8 0 1280 0 C1280 197.01 1280 394.02 1280 597 C1278 596 1278 596 1277 593 C1276.9419138 591.55322022 1276.93849009 590.1037922 1276.97265625 588.65625 C1276.99102539 587.40521484 1276.99102539 587.40521484 1277.00976562 586.12890625 C1277.04492353 584.37621941 1277.08398661 582.62360655 1277.12695312 580.87109375 C1277.13791016 580.03707031 1277.14886719 579.20304688 1277.16015625 578.34375 C1277.17699463 577.58255859 1277.19383301 576.82136719 1277.21118164 576.03710938 C1277.12737589 573.6862882 1277.12737589 573.6862882 1275 571 C1274.72525224 568.43379929 1274.53661287 565.94709995 1274.4375 563.375 C1274.63872685 558.82021265 1274.63872685 558.82021265 1273 555 C1272.67473295 551.63890715 1272.4864054 548.2766601 1272.28125 544.90625 C1272.3214011 542.10949868 1272.3214011 542.10949868 1271 541 C1270.67553663 537.89957227 1270.48665559 534.7979275 1270.28125 531.6875 C1270.29392201 529.08403248 1270.29392201 529.08403248 1269 528 C1268.92794489 526.31391034 1268.91613932 524.62499341 1268.9375 522.9375 C1268.94652344 522.01839844 1268.95554687 521.09929688 1268.96484375 520.15234375 C1268.97644531 519.44207031 1268.98804688 518.73179687 1269 518 C1268.34 518 1267.68 518 1267 518 C1266.93941406 517.28972656 1266.87882812 516.57945312 1266.81640625 515.84765625 C1266.69072266 514.46900391 1266.69072266 514.46900391 1266.5625 513.0625 C1266.48128906 512.14597656 1266.40007812 511.22945313 1266.31640625 510.28515625 C1266.23955024 508.03840268 1266.23955024 508.03840268 1265 507 C1264.71612221 504.77854367 1264.55234827 502.55682352 1264.37890625 500.32421875 C1263.97900249 497.87120087 1263.13262891 496.19188915 1262 494 C1262 492.33333333 1262 490.66666667 1262 489 C1261.34 488.01 1260.68 487.02 1260 486 C1259.46324193 483.76303968 1258.99171748 481.51006041 1258.5625 479.25 C1257.43074735 473.53839041 1257.43074735 473.53839041 1255.375 468.125 C1254.17951455 465.40798761 1253.77135333 463.85463706 1253.5 461 C1253.18030111 457.65594963 1252.27566363 455.06218639 1250.828125 452.00390625 C1249.39445068 448.53468491 1248.56900898 444.89060535 1247.6484375 441.2578125 C1247.2117791 439.05029761 1247.2117791 439.05029761 1246 438 C1245.95919217 436.00041636 1245.95745644 433.99954746 1246 432 C1245.34 432 1244.68 432 1244 432 C1243.58621094 430.49179687 1243.58621094 430.49179687 1243.1640625 428.953125 C1241.72345326 423.90718154 1239.84888093 419.02646538 1238.0234375 414.109375 C1237 411 1237 411 1237 408 C1236.34 408 1235.68 408 1235 408 C1235 406.02 1235 404.04 1235 402 C1234.34 402 1233.68 402 1233 402 C1232.81824219 401.33613281 1232.63648438 400.67226563 1232.44921875 399.98828125 C1231.08387416 395.19207076 1229.63052479 391.2589449 1227 387 C1227 385.68 1227 384.36 1227 383 C1226.34 383 1225.68 383 1225 383 C1224.5978125 381.9790625 1224.5978125 381.9790625 1224.1875 380.9375 C1221.3397686 373.89311181 1218.15070582 367.1454042 1214.59179688 360.43359375 C1212.78535963 356.94554027 1212 355.01180484 1212 351 C1211.34 351 1210.68 351 1210 351 C1210 349.68 1210 348.36 1210 347 C1209.34 347 1208.68 347 1208 347 C1207.60167969 346.19175781 1207.20335937 345.38351562 1206.79296875 344.55078125 C1205.99826172 342.94783203 1205.99826172 342.94783203 1205.1875 341.3125 C1204.66542969 340.25675781 1204.14335938 339.20101563 1203.60546875 338.11328125 C1202.05710232 335.01630338 1202.05710232 335.01630338 1200.30078125 332.23046875 C1199 330 1199 330 1199 328 C1198.34 328 1197.68 328 1197 328 C1196.61199219 326.84113281 1196.22398438 325.68226563 1195.82421875 324.48828125 C1194.10556137 319.90216375 1191.6389911 316.15910305 1188.8125 312.1875 C1184 305.39377608 1184 305.39377608 1184 302 C1183.34 302 1182.68 302 1182 302 C1178 295.375 1178 295.375 1178 292 C1177.34 292 1176.68 292 1176 292 C1174 289 1174 289 1174 286 C1173.34 286 1172.68 286 1172 286 C1172 285.01 1172 284.02 1172 283 C1171.01 282.67 1170.02 282.34 1169 282 C1167.39453125 279.78515625 1167.39453125 279.78515625 1165.8125 277.0625 C1165.01779297 275.71865234 1165.01779297 275.71865234 1164.20703125 274.34765625 C1163 272 1163 272 1163 270 C1162.01 269.67 1161.02 269.34 1160 269 C1158.58440931 266.91585519 1157.3063968 264.86965039 1156.0625 262.6875 C1153.73956775 258.64586644 1151.41162452 255.21707159 1148 252 C1147.05633031 250.81263538 1146.13896176 249.60385891 1145.25 248.375 C1139.52142368 240.61184115 1133.40869465 233.20796496 1127 226 C1122.93471996 221.38394009 1118.93796322 216.72555586 1115 212 C1109.94233281 206.03667509 1104.59019152 200.42998558 1099.06640625 194.8984375 C1097.81125465 193.6382933 1097.81125465 193.6382933 1096.53074646 192.35269165 C1094.77140093 190.58831253 1093.01072417 188.82525993 1091.2487793 187.06347656 C1088.56856101 184.38106596 1085.89645377 181.69074837 1083.22460938 179 C1081.50569891 177.27815595 1079.78631369 175.5567857 1078.06640625 173.8359375 C1077.27657852 173.03892426 1076.48675079 172.24191101 1075.67298889 171.42074585 C1071.55945933 167.32392117 1067.41290926 163.60574969 1062.67921448 160.23760986 C1060.33159677 158.50737536 1058.37280879 156.49252767 1056.375 154.375 C1053.12986066 151.04080023 1049.91877434 148.52543235 1046 146 C1044.91646668 144.95895819 1043.85437467 143.8952325 1042.8125 142.8125 C1040.25621612 139.83695338 1040.25621612 139.83695338 1037 139 C1037 138.34 1037 137.68 1037 137 C1036.42121094 136.7215625 1035.84242187 136.443125 1035.24609375 136.15625 C1028.24105485 132.5501778 1022.06923483 127.56911368 1015.8737793 122.74853516 C1011.82746314 119.60893834 1007.69803052 116.62796234 1003.4765625 113.7265625 C999.80372058 111.16600078 996.22483406 108.47966622 992.640625 105.796875 C989.8646252 103.90788106 987.03153112 102.43598843 984 101 C984 100.34 984 99.68 984 99 C983.1028125 98.7834375 983.1028125 98.7834375 982.1875 98.5625 C980.43849596 98.1127561 978.71322977 97.57107659 977 97 C977 96.34 977 95.68 977 95 C976.484375 94.9175 975.96875 94.835 975.4375 94.75 C969.51422468 92.92745375 964.21386216 88.88752196 959.0625 85.5 C953.37577625 81.80389287 947.77450875 78.47297903 941.4375 76 C937.43101389 74.35631339 933.73929891 72.14141491 930.125 69.76953125 C923.89265727 65.68583894 917.28517484 62.67091166 910 61 C910 60.34 910 59.68 910 59 C909.1646875 58.814375 909.1646875 58.814375 908.3125 58.625 C903.92321721 57.43870735 899.8186166 55.50223678 895.6875 53.625 C894.72199219 53.18671875 893.75648438 52.7484375 892.76171875 52.296875 C890.46409002 51.21793195 888.23586851 50.07360992 886 48.875 C882.00861088 46.83002903 877.87407036 45.81795372 873.54296875 44.71875 C870.46669502 43.84926557 867.81314916 42.50470769 865 41 C863.01276732 40.29618843 861.01222047 39.6288189 859 39 C853 37 853 37 850.21484375 36.05859375 C847.01201306 35.0039557 843.79313819 34.02820097 840.5625 33.0625 C835.87098483 31.62838911 831.46855666 30.00629075 827 28 C823.80224833 26.80084312 821.01792217 26.00232324 817.625 25.5625 C814.08139795 25.01263072 811.29221014 24.0188992 807.99609375 22.6953125 C805.06305429 21.67362752 802.07172315 21.37612936 799 21 C798.67 20.67 798.34 20.34 798 20 C796.65252916 19.76924918 795.29622435 19.58846937 793.9375 19.4375 C792.638125 19.293125 791.33875 19.14875 790 19 C790 18.34 790 17.68 790 17 C788.84371094 16.90912109 788.84371094 16.90912109 787.6640625 16.81640625 C786.66117188 16.73261719 785.65828125 16.64882813 784.625 16.5625 C783.62726562 16.48128906 782.62953125 16.40007813 781.6015625 16.31640625 C779 16 779 16 777 15 C774.66922657 14.69208131 772.33758104 14.49104726 769.99609375 14.28125 C768 14 768 14 767 13 C765.50503158 12.79300437 764.0033408 12.63320741 762.5 12.5 C758.11111111 12.11111111 758.11111111 12.11111111 757 11 C755.31816052 10.76712992 753.6287584 10.58735834 751.9375 10.4375 C751.01839844 10.35371094 750.09929688 10.26992187 749.15234375 10.18359375 C748.44207031 10.12300781 747.73179687 10.06242188 747 10 C747 9.34 747 8.68 747 8 C746.00097656 8.01160156 745.00195312 8.02320313 743.97265625 8.03515625 C742.68230469 8.04417969 741.39195312 8.05320312 740.0625 8.0625 C738.77472656 8.07410156 737.48695313 8.08570313 736.16015625 8.09765625 C733 8 733 8 732 7 C729.32939127 6.78916247 726.6747865 6.62408803 724 6.5 C716.13513514 6.13513514 716.13513514 6.13513514 715 5 C713.55974887 4.86744096 712.11367224 4.79676222 710.66796875 4.75390625 C709.34635742 4.70459961 709.34635742 4.70459961 707.99804688 4.65429688 C706.13617934 4.59348536 704.27419482 4.53614848 702.41210938 4.48242188 C701.52716797 4.44826172 700.64222656 4.41410156 699.73046875 4.37890625 C698.91989014 4.3538501 698.10931152 4.32879395 697.27416992 4.30297852 C695 4 695 4 693.12910652 2.9969368 C690.76809046 1.89141024 689.25182986 1.74865275 686.66012573 1.74603271 C685.79927368 1.74039307 684.93842163 1.73475342 684.05148315 1.72894287 C683.11523102 1.73299133 682.17897888 1.73703979 681.21435547 1.74121094 C680.22211975 1.7377063 679.22988403 1.73420166 678.20758057 1.73059082 C674.92737843 1.72178695 671.64739184 1.7276171 668.3671875 1.734375 C666.09083006 1.73302818 663.81447291 1.73108751 661.53811646 1.72857666 C656.7683844 1.7256274 651.99872726 1.72991755 647.22900391 1.73925781 C641.10409539 1.75066512 634.97936189 1.74408347 628.85445976 1.73211288 C624.15514802 1.72490003 619.45587807 1.72717935 614.75656509 1.73236847 C612.49743759 1.73370589 610.23830633 1.73205405 607.9791832 1.72740936 C604.82830437 1.72235218 601.6777128 1.73004246 598.52685547 1.74121094 C597.11640457 1.73513824 597.11640457 1.73513824 595.67745972 1.72894287 C594.82224731 1.73458252 593.96703491 1.74022217 593.08590698 1.74603271 C592.34076277 1.74678677 591.59561855 1.74754082 590.82789421 1.74831772 C588.7504533 1.84684908 588.7504533 1.84684908 587 4 C584.76928711 4.30297852 584.76928711 4.30297852 582.02734375 4.37890625 C581.04572266 4.41306641 580.06410156 4.44722656 579.05273438 4.48242188 C578.02470703 4.50884766 576.99667969 4.53527344 575.9375 4.5625 C573.90482249 4.62217261 571.87225477 4.68575835 569.83984375 4.75390625 C568.93613037 4.77783447 568.03241699 4.8017627 567.10131836 4.82641602 C565.01358411 4.77091835 565.01358411 4.77091835 564 6 C560.37827258 6.32595547 556.7554479 6.51380536 553.125 6.71875 C550.1350199 6.65135448 550.1350199 6.65135448 549 8 C546.64686445 8.07271741 544.29166332 8.08370868 541.9375 8.0625 C540.64714844 8.05347656 539.35679687 8.04445313 538.02734375 8.03515625 C537.02832031 8.02355469 536.02929688 8.01195312 535 8 C535 8.66 535 9.32 535 10 C534.22914063 10.06058594 533.45828125 10.12117187 532.6640625 10.18359375 C531.66117188 10.26738281 530.65828125 10.35117188 529.625 10.4375 C528.62726562 10.51871094 527.62953125 10.59992187 526.6015625 10.68359375 C524.02072387 10.84965626 524.02072387 10.84965626 522 12 C520.29297265 12.06996014 518.58331997 12.08440154 516.875 12.0625 C515.96492187 12.05347656 515.05484375 12.04445313 514.1171875 12.03515625 C513.41851563 12.02355469 512.71984375 12.01195312 512 12 C512 12.66 512 13.32 512 14 C510.72125 14.103125 509.4425 14.20625 508.125 14.3125 C499.44693585 15.15150011 499.44693585 15.15150011 492 19 C491.05125 18.979375 490.1025 18.95875 489.125 18.9375 C485.83264113 18.72305197 485.83264113 18.72305197 483 21 C480.67085177 21.36141955 478.33746522 21.69699525 476 22 C475.67 22.33 475.34 22.66 475 23 C472.32941149 23.14115161 469.67567762 23.04247107 467 23 C467 23.66 467 24.32 467 25 C466.14535156 25.20496094 465.29070312 25.40992187 464.41015625 25.62109375 C463.30542969 25.89050781 462.20070313 26.15992187 461.0625 26.4375 C459.96035156 26.70433594 458.85820312 26.97117187 457.72265625 27.24609375 C455.10578746 27.72995725 455.10578746 27.72995725 454 29 C451.66666667 29.33333333 449.33333333 29.66666667 447 30 C446.67 30.33 446.34 30.66 446 31 C444.00041636 31.04080783 441.99954746 31.04254356 440 31 C439.67 31.99 439.34 32.98 439 34 C438.21625 34.0825 437.4325 34.165 436.625 34.25 C431.1432887 35.38414717 426.07493294 37.5622121 421.01171875 39.9296875 C417.16391733 41.7213467 414.23946169 42.31020451 410 42 C410 42.66 410 43.32 410 44 C409.33613281 44.18175781 408.67226563 44.36351562 407.98828125 44.55078125 C403.2065809 45.91199522 399.21161858 47.30924368 395 50 C391.31583137 51.42855518 388.99667005 52 385 52 C384.67 52.99 384.34 53.98 384 55 C382.68 55 381.36 55 380 55 C380 55.66 380 56.32 380 57 C376.48879525 58.96627466 372.85484861 59.89861468 369 61 C368.2575 61.37125 367.515 61.7425 366.75 62.125 C365 63 365 63 362 63 C362 63.66 362 64.32 362 65 C360.35 65 358.7 65 357 65 C357 65.66 357 66.32 357 67 C355.68 67 354.36 67 353 67 C353 67.66 353 68.32 353 69 C351.68 69 350.36 69 349 69 C348.67 69.99 348.34 70.98 348 72 C347.01 71.67 346.02 71.34 345 71 C344.67 71.99 344.34 72.98 344 74 C341.87007372 75.29316953 339.70396949 76.11277353 337.375 77 C334.86923233 77.87923641 334.86923233 77.87923641 333 80 C332.01 80 331.02 80 330 80 C330 80.66 330 81.32 330 82 C329.45730469 82.18175781 328.91460937 82.36351563 328.35546875 82.55078125 C327.64003906 82.80214844 326.92460937 83.05351563 326.1875 83.3125 C325.47980469 83.55613281 324.77210938 83.79976563 324.04296875 84.05078125 C321.92407476 84.88151846 321.92407476 84.88151846 320.48828125 86.60546875 C319 88 319 88 315 88 C315 88.66 315 89.32 315 90 C313.68 90 312.36 90 311 90 C310.67 90.99 310.34 91.98 310 93 C306.9375 94.1875 306.9375 94.1875 304 95 C304 95.66 304 96.32 304 97 C303.195625 97.28875 302.39125 97.5775 301.5625 97.875 C298.8673532 98.73262568 298.8673532 98.73262568 298 101 C296.3369416 101.67561748 294.66959445 102.34069992 293 103 C291.30201968 104.07715626 289.63523622 105.20478408 288 106.375 C287.13117188 106.99503906 286.26234375 107.61507812 285.3671875 108.25390625 C283.58876293 109.56571447 281.84697971 110.92742937 280.125 112.3125 C278 114 278 114 276.125 114.91796875 C273.83704658 116.08297444 271.91736121 117.4468736 269.875 119 C269.19179688 119.515625 268.50859375 120.03125 267.8046875 120.5625 C265.9031823 122.02179528 265.9031823 122.02179528 264 124 C262.68 124 261.36 124 260 124 C259.67 124.99 259.34 125.98 259 127 C256.7505794 129.00623999 254.65508989 130.68238066 251.9375 132 C249.851147 132.95249372 249.851147 132.95249372 248.0625 134.9375 C246 137 246 137 243.6875 138.375 C240.10193095 140.54301849 237.13133156 143.23022425 234 146 C233.32324219 146.58394531 232.64648438 147.16789063 231.94921875 147.76953125 C228.96261187 150.35117449 226.07373876 152.92454639 223.3125 155.75 C221 158 221 158 218.70826721 159.30400085 C215.51640342 161.30284286 212.99058817 163.72925797 210.35522461 166.38598633 C209.8147197 166.9229866 209.27421478 167.45998688 208.71733093 168.01325989 C206.94062101 169.78120263 205.17128646 171.55631942 203.40234375 173.33203125 C202.16383067 174.56919605 200.92502091 175.80606391 199.68592834 177.04264832 C197.09293621 179.6326958 194.50358551 182.22631566 191.91674805 184.82250977 C188.60933408 188.14130583 185.29303846 191.45105797 181.97394466 194.75816822 C179.41462734 197.31023901 176.86011679 199.86707847 174.30700874 202.42535973 C173.08651881 203.64717905 171.86455464 204.86752765 170.6410656 206.08634377 C168.92760263 207.79469689 167.22073262 209.50938484 165.51538086 211.22583008 C164.76327332 211.97186493 164.76327332 211.97186493 163.99597168 212.73297119 C160.8555563 215.91111211 158.40627092 219.24471782 156 223 C154.85263564 224.22632277 153.66823577 225.41987059 152.4375 226.5625 C150.42628363 228.50582721 148.99106631 230.01514844 147.5625 232.4375 C145.46941018 235.87016731 142.68243587 238.31569576 139.7421875 241.03515625 C137.88527485 243.12938733 137.57785684 244.33296844 137 247 C135.34614767 248.34919532 133.678298 249.68133728 132 251 C130.96986723 252.64821244 129.96885372 254.31503702 129 256 C128.29875 256.680625 127.5975 257.36125 126.875 258.0625 C124.85873999 259.8062107 124.85873999 259.8062107 124.5625 262 C123.71474487 265.01424045 121.39441167 266.08447066 119 268 C118.3574765 270.06874034 118.3574765 270.06874034 118 272 C117.01 272.66 116.02 273.32 115 274 C114.731875 274.70125 114.46375 275.4025 114.1875 276.125 C112.49998901 280.21055292 109.98118215 283.73528151 107 287 C106.34 287 105.68 287 105 287 C104.95875 287.66 104.9175 288.32 104.875 289 C103.79891436 292.68943649 101.91662779 294.89149648 99.5546875 297.875 C97.62340333 300.51474519 96.28113123 303.25754477 94.95703125 306.23828125 C93.89307319 308.19683262 92.58496611 309.44986831 91 311 C90.40929986 312.94603274 90.40929986 312.94603274 90 315 C88.65948398 318.2555389 88.07392327 318.95071782 85 321 C84.27617533 323.05925139 84.27617533 323.05925139 84 325 C83.34 325 82.68 325 82 325 C82 326.32 82 327.64 82 329 C81.34 329 80.68 329 80 329 C80 330.32 80 331.64 80 333 C79.34 333 78.68 333 78 333 C77.896875 333.721875 77.79375 334.44375 77.6875 335.1875 C76.92450058 338.30886127 75.66658126 340.25322718 74 343 C72.7515028 345.43015836 71.52094836 347.86280614 70.3125 350.3125 C69.99216797 350.95767578 69.67183594 351.60285156 69.34179688 352.26757812 C68.55935553 353.84413905 67.7794193 355.42194285 67 357 C66.34 357 65.68 357 65 357 C65 358.32 65 359.64 65 361 C64.34 361 63.68 361 63 361 C63 362.32 63 363.64 63 365 C62.34 365 61.68 365 61 365 C61.10248047 366.28777344 61.10248047 366.28777344 61.20703125 367.6015625 C60.95861721 371.67930233 59.74057261 373.86394829 57.6875 377.375 C54.96226818 382.19783449 52.74896278 386.75311165 51 392 C50.67 392.99 50.34 393.98 50 395 C49.34 395 48.68 395 48 395 C48 396.32 48 397.64 48 399 C47.34 399 46.68 399 46 399 C46.0825 399.78375 46.165 400.5675 46.25 401.375 C45.90295977 406.40708328 43.99026778 410.40759156 42 415 C41.24247173 416.80936651 40.49218903 418.62178755 39.75 420.4375 C39.24726562 421.64212891 39.24726562 421.64212891 38.734375 422.87109375 C37.8369512 425.09733308 37.8369512 425.09733308 38 428 C37.34 428 36.68 428 36 428 C36.04125 428.94875 36.0825 429.8975 36.125 430.875 C36 434 36 434 34 436 C33.45817792 437.71056917 32.98806488 439.44436702 32.5625 441.1875 C31.70257254 444.53117732 30.81735013 447.67450898 29.375 450.8125 C28.03091988 453.92832211 27.4091083 456.64531194 27 460 C26.34 460 25.68 460 25 460 C25.020625 461.299375 25.04125 462.59875 25.0625 463.9375 C25.08399454 465.29165633 25.07148199 466.64756083 25 468 C24.67 468.33 24.34 468.66 24 469 C23.7834375 470.546875 23.7834375 470.546875 23.5625 472.125 C23.0082083 475.94345392 22.12585988 479.32219105 21 483 C20.34 483 19.68 483 19 483 C19.02320312 483.68707031 19.04640625 484.37414062 19.0703125 485.08203125 C19.09738281 486.43361328 19.09738281 486.43361328 19.125 487.8125 C19.14820312 488.70582031 19.17140625 489.59914063 19.1953125 490.51953125 C19 493 19 493 17 496 C15.34669613 501.64068378 14.5143545 507.15260148 14 513 C13.34 513 12.68 513 12 513 C12.01160156 513.69867187 12.02320313 514.39734375 12.03515625 515.1171875 C12.04417969 516.02726563 12.05320312 516.93734375 12.0625 517.875 C12.07410156 518.77992188 12.08570313 519.68484375 12.09765625 520.6171875 C12 523 12 523 11 525 C10.7724985 526.87056791 10.59037189 528.74685958 10.4375 530.625 C10.35371094 531.62789062 10.26992187 532.63078125 10.18359375 533.6640625 C10.12300781 534.43492187 10.06242188 535.20578125 10 536 C9.34 536 8.68 536 8 536 C8.01160156 536.85464844 8.02320313 537.70929687 8.03515625 538.58984375 C8.04417969 539.69457031 8.05320312 540.79929687 8.0625 541.9375 C8.07410156 543.03964844 8.08570313 544.14179687 8.09765625 545.27734375 C8 548 8 548 7 549 C6.78916247 551.67060873 6.62408803 554.3252135 6.5 557 C6.13513514 564.86486486 6.13513514 564.86486486 5 566 C4.86750736 567.46375483 4.79678005 568.93323029 4.75390625 570.40234375 C4.72103516 571.29244141 4.68816406 572.18253906 4.65429688 573.09960938 C4.59322914 574.98751184 4.53592113 576.87553977 4.48242188 578.76367188 C4.44826172 579.65505859 4.41410156 580.54644531 4.37890625 581.46484375 C4.3538501 582.285896 4.32879395 583.10694824 4.30297852 583.95288086 C4 586 4 586 2 588 C1.69705566 589.94654123 1.69705566 589.94654123 1.74603271 592.20652771 C1.74039307 593.08842773 1.73475342 593.97032776 1.72894287 594.87895203 C1.73299133 595.84887589 1.73703979 596.81879974 1.74121094 597.81811523 C1.7377063 598.83771332 1.73420166 599.8573114 1.73059082 600.9078064 C1.72176004 604.29147065 1.72762789 607.67492723 1.734375 611.05859375 C1.73302863 613.40267477 1.73108834 615.74675551 1.72857666 618.09083557 C1.72562348 623.00955864 1.7299289 627.92820918 1.73925781 632.84692383 C1.75064613 639.1601181 1.74409794 645.47314222 1.73211288 651.78633022 C1.72489418 656.62894478 1.72718238 661.47151884 1.73236847 666.3141346 C1.73370526 668.64221275 1.73205623 670.97029455 1.72740936 673.29836845 C1.72234472 676.54984176 1.73005398 679.80103765 1.74121094 683.05249023 C1.73716248 684.02038986 1.73311401 684.98828949 1.72894287 685.98551941 C1.73458252 686.87023926 1.74022217 687.75495911 1.74603271 688.66648865 C1.74678677 689.43543174 1.74754082 690.20437483 1.74831772 690.99661922 C1.88823626 693.31623584 1.88823626 693.31623584 4 696 C4.30297852 698.16064453 4.30297852 698.16064453 4.37890625 700.6328125 C4.43014648 701.96505859 4.43014648 701.96505859 4.48242188 703.32421875 C4.50884766 704.24847656 4.53527344 705.17273438 4.5625 706.125 C4.62217882 707.96107616 4.68576588 709.7970309 4.75390625 711.6328125 C4.77783447 712.44637207 4.8017627 713.25993164 4.82641602 714.09814453 C4.79635625 716.00965916 4.79635625 716.00965916 6 717 C6.27037106 720.42470005 6.44629658 723.84239304 6.60546875 727.2734375 C6.46158649 730.94187048 6.46158649 730.94187048 8 734 C8.32351301 736.83972535 8.5130429 739.68073737 8.71875 742.53125 C8.73385265 744.9413605 8.73385265 744.9413605 10 746 C10.16218587 747.60083461 10.27849417 749.20636728 10.375 750.8125 C10.80287839 756.13337483 11.9368057 761.0184367 13.3125 766.1640625 C13.91441468 768.64696056 14.28003911 770.9612847 14.5 773.5 C15.1739463 782.92358373 15.1739463 782.92358373 19 791 C19.14115161 793.67058851 19.04247107 796.32432238 19 799 C19.66 799 20.32 799 21 799 C21.103125 800.175625 21.20625 801.35125 21.3125 802.5625 C21.68528906 805.6818673 22.24278317 807.5438343 23.5625 810.5 C25.29845549 814.72667423 25.23783801 817.48107776 25 822 C25.66 822 26.32 822 27 822 C27.99470451 825.47483441 28.98602862 828.95033656 29.96484375 832.4296875 C31.46372829 837.73898937 32.96712674 843.02812475 34.75 848.25 C36 852 36 852 36 854 C36.66 854 37.32 854 38 854 C38.25523438 855.12535156 38.25523438 855.12535156 38.515625 856.2734375 C40.62929586 867.39078077 40.62929586 867.39078077 46 877 C46.04080783 878.99958364 46.04254356 881.00045254 46 883 C46.66 883 47.32 883 48 883 C48.680625 884.3921875 48.680625 884.3921875 49.375 885.8125 C50.9421633 889.03921389 50.9421633 889.03921389 53 892 C53.103125 892.86625 53.20625 893.7325 53.3125 894.625 C54.11170794 898.54838442 55.72602606 901.20663349 57.734375 904.62890625 C59.35046159 907.65657465 60.31343698 910.73829537 61.3203125 914.0078125 C62.19897153 916.5831924 63.55044972 918.70487872 65 921 C65.53746069 922.22198775 66.05753439 923.45172988 66.5625 924.6875 C67.76210668 928.00688437 67.76210668 928.00688437 70 930 C70.433125 931.216875 70.86625 932.43375 71.3125 933.6875 C72.57423363 937.20905506 74.26227471 939.83290015 76.54296875 942.81640625 C79.22012824 946.8285568 81.17578227 951.25423314 83.25390625 955.59765625 C84.96117677 958.92435115 86.89107037 961.91674488 89 965 C89.91773341 966.52873113 90.81621396 968.0693284 91.6875 969.625 C92.31205078 970.72714844 92.31205078 970.72714844 92.94921875 971.8515625 C93.95377263 973.90548306 94.54039913 975.76765291 95 978 C95.66 978 96.32 978 97 978 C97.28915283 978.54672363 97.57830566 979.09344727 97.8762207 979.65673828 C100.9560754 985.35449987 104.39762292 990.62819861 108.1875 995.875 C109.2437146 997.35140155 110.29971317 998.82795768 111.35546875 1000.3046875 C111.81590576 1000.94390137 112.27634277 1001.58311523 112.75073242 1002.24169922 C116 1006.81493062 116 1006.81493062 116 1010 C116.66 1010 117.32 1010 118 1010 C119.5078125 1011.64453125 119.5078125 1011.64453125 121.125 1013.8125 C121.66382812 1014.52019531 122.20265625 1015.22789062 122.7578125 1015.95703125 C124 1018 124 1018 124 1021 C124.99 1021.33 125.98 1021.66 127 1022 C128.578125 1023.96875 128.578125 1023.96875 130.25 1026.5 C137.59509628 1037.33324869 145.98697862 1047.46325798 154.5625 1057.34375 C155.55043947 1058.48202808 156.52914802 1059.62836327 157.5 1060.78125 C161.15858373 1065.07305015 165.04189383 1069.05255165 169.0625 1073 C172.24489873 1076.12877908 175.32424695 1079.19496618 177.875 1082.875 C180.80171801 1087.02118385 184.30726257 1090.53481809 187.875 1094.125 C188.7410083 1095.00454346 188.7410083 1095.00454346 189.62451172 1095.90185547 C192.59165046 1098.84904147 195.58954221 1101.50407417 198.9765625 1103.9609375 C203.97104649 1107.60347672 208.08768587 1111.98611475 212.35546875 1116.43359375 C216.0846545 1120.2565955 219.90253746 1123.57089149 224.22802734 1126.70458984 C226.28640404 1128.20937722 228.17932712 1129.84488078 230.0625 1131.5625 C233.04626039 1134.2244823 236.12185491 1136.54573445 239.41015625 1138.8125 C241.84069388 1140.62793843 243.85788713 1142.85788713 246 1145 C246.9075 1145.53625 247.815 1146.0725 248.75 1146.625 C251 1148 251 1148 252 1151 C253.4540625 1151.4640625 253.4540625 1151.4640625 254.9375 1151.9375 C258.60252988 1153.20904098 258.38187513 1153.76375027 260 1157 C260.845625 1157.268125 261.69125 1157.53625 262.5625 1157.8125 C265.84926598 1158.94792825 267.38624716 1159.9458785 270.0234375 1162.09375 C275.20573474 1166.20976996 280.594416 1169.96318987 286.0625 1173.6875 C287.00416016 1174.33783203 287.94582031 1174.98816406 288.91601562 1175.65820312 C294.12866928 1179.21673704 299.27602874 1182.33690383 305 1185 C305 1185.66 305 1186.32 305 1187 C305.99 1187 306.98 1187 308 1187 C308 1187.66 308 1188.32 308 1189 C308.55171875 1189.11214844 309.1034375 1189.22429687 309.671875 1189.33984375 C312.40065211 1190.11360773 314.72772943 1191.26817694 317.25 1192.5625 C318.14203125 1193.01753906 319.0340625 1193.47257812 319.953125 1193.94140625 C320.62859375 1194.29074219 321.3040625 1194.64007812 322 1195 C322 1195.66 322 1196.32 322 1197 C322.71542969 1197.09667969 323.43085938 1197.19335938 324.16796875 1197.29296875 C327.43267911 1198.10802058 329.53003017 1199.4320175 332.3125 1201.3125 C337.91402334 1204.98897152 343.38623054 1208.51735278 350 1210 C350 1210.66 350 1211.32 350 1212 C351.32 1212 352.64 1212 354 1212 C354 1212.66 354 1213.32 354 1214 C355.32 1214 356.64 1214 358 1214 C358 1214.66 358 1215.32 358 1216 C358.7425 1216.144375 359.485 1216.28875 360.25 1216.4375 C362.52027739 1216.90187492 364.75759479 1217.41863569 367 1218 C367 1218.66 367 1219.32 367 1220 C367.56203125 1220.12246094 368.1240625 1220.24492188 368.703125 1220.37109375 C371.18986519 1221.0519869 373.40514776 1221.99352325 375.75 1223.0625 C376.54921875 1223.42472656 377.3484375 1223.78695313 378.171875 1224.16015625 C379.07679688 1224.57587891 379.07679688 1224.57587891 380 1225 C380 1225.66 380 1226.32 380 1227 C381.98 1227 383.96 1227 386 1227 C386 1227.66 386 1228.32 386 1229 C387.32 1229 388.64 1229 390 1229 C390 1229.66 390 1230.32 390 1231 C391.07314453 1231.19916016 391.07314453 1231.19916016 392.16796875 1231.40234375 C394.94188322 1231.98773535 397.60299275 1232.73158444 400.3125 1233.5625 C401.19550781 1233.83191406 402.07851563 1234.10132813 402.98828125 1234.37890625 C403.65214844 1234.58386719 404.31601562 1234.78882813 405 1235 C405 1235.66 405 1236.32 405 1237 C405.69480469 1236.9484375 406.38960938 1236.896875 407.10546875 1236.84375 C410.62007238 1237.03347219 413.09760163 1238.08685786 416.3125 1239.5 C417.38113281 1239.9640625 418.44976562 1240.428125 419.55078125 1240.90625 C420.35902344 1241.2671875 421.16726563 1241.628125 422 1242 C422 1242.66 422 1243.32 422 1244 C422.86625 1243.690625 422.86625 1243.690625 423.75 1243.375 C426.60022516 1242.89996247 427.52790245 1243.57667111 430 1245 C433.64855555 1246.63224853 437.04202567 1247.44772451 441 1248 C441 1248.66 441 1249.32 441 1250 C442.98 1250 444.96 1250 447 1250 C447 1250.66 447 1251.32 447 1252 C447.845625 1251.938125 448.69125 1251.87625 449.5625 1251.8125 C453.61054248 1252.03330232 456.29078944 1253.40120234 460 1255 C462.67609978 1255.50794161 465.28076337 1255.76147047 468 1256 C468 1256.66 468 1257.32 468 1258 C468.99 1257.938125 469.98 1257.87625 471 1257.8125 C474.73741725 1257.79749029 477.46236555 1258.849822 480.875 1260.26953125 C483.91962931 1261.31612258 486.92031765 1261.55514519 490.1171875 1261.7890625 C492 1262 492 1262 494 1263 C494 1263.66 494 1264.32 494 1265 C494.928125 1264.79375 495.85625 1264.5875 496.8125 1264.375 C500 1264 500 1264 503 1266 C505.50896686 1266.45601261 505.50896686 1266.45601261 508.1875 1266.625 C509.53908203 1266.73714844 509.53908203 1266.73714844 510.91796875 1266.8515625 C511.60503906 1266.90054687 512.29210937 1266.94953125 513 1267 C513 1267.66 513 1268.32 513 1269 C513.71027344 1268.98839844 514.42054688 1268.97679687 515.15234375 1268.96484375 C516.53099609 1268.95130859 516.53099609 1268.95130859 517.9375 1268.9375 C518.85402344 1268.92589844 519.77054688 1268.91429687 520.71484375 1268.90234375 C523 1269 523 1269 524 1270 C525.68183948 1270.23287008 527.3712416 1270.41264166 529.0625 1270.5625 C530.44115234 1270.68818359 530.44115234 1270.68818359 531.84765625 1270.81640625 C532.55792969 1270.87699219 533.26820313 1270.93757813 534 1271 C534 1271.66 534 1272.32 534 1273 C534.99902344 1272.98839844 535.99804688 1272.97679687 537.02734375 1272.96484375 C538.96287109 1272.95130859 538.96287109 1272.95130859 540.9375 1272.9375 C542.22527344 1272.92589844 543.51304687 1272.91429687 544.83984375 1272.90234375 C548 1273 548 1273 549 1274 C551.14204311 1274.20983279 553.28924113 1274.36823385 555.4375 1274.5 C561.77972466 1274.88986233 561.77972466 1274.88986233 564 1276 C565.3734635 1276.15004973 566.7528526 1276.24838006 568.1328125 1276.31640625 C568.93847656 1276.35830078 569.74414062 1276.40019531 570.57421875 1276.44335938 C571.41597656 1276.48267578 572.25773438 1276.52199219 573.125 1276.5625 C573.97449219 1276.60568359 574.82398438 1276.64886719 575.69921875 1276.69335938 C577.79928223 1276.79954236 579.89961948 1276.90028497 582 1277 C582 1277.66 582 1278.32 582 1279 C582.66 1279.33 583.32 1279.66 584 1280 C391.28 1280 198.56 1280 0 1280 C0 857.6 0 435.2 0 0 Z " fill="#000000" transform="translate(0,0)"/>
<path d="M0 0 C1.37385892 -0.03198023 2.74771207 -0.06420937 4.12155986 -0.09666461 C7.88357718 -0.18402249 11.64570401 -0.26523184 15.40789485 -0.34472764 C17.81673435 -0.39592758 20.22553701 -0.4486325 22.63433647 -0.50168037 C53.23583684 -1.17210329 83.83990772 -1.59518877 114.44694884 -1.91425585 C119.46039812 -1.96660847 124.4738262 -2.02078278 129.48724365 -2.07609558 C130.48499639 -2.08707174 131.48274913 -2.0980479 132.51073679 -2.10935666 C148.58918025 -2.29087278 164.66040191 -2.63107764 180.73468879 -3.03252248 C197.30526658 -3.44283944 213.87212151 -3.68044684 230.44759154 -3.76422805 C239.73008461 -3.81585131 248.99796855 -3.94189754 258.27527618 -4.2663517 C321.60121364 -6.41705015 321.60121364 -6.41705015 343.02316642 13.14632517 C351.49923391 21.18581323 358.88534146 30.22184182 365.75754929 39.65134144 C369.17086337 44.25885713 373.03711067 47.80933029 377.46429443 51.41633606 C378.9417602 52.82378377 380.40437583 54.24725286 381.8414917 55.69587708 C382.59910294 56.45679153 383.35671417 57.21770599 384.13728333 58.00167847 C384.92711105 58.79980453 385.71693878 59.5979306 386.53070068 60.42024231 C387.78728737 61.68250893 387.78728737 61.68250893 389.06925964 62.97027588 C391.72422701 65.63736745 394.37591662 68.30768015 397.02679443 70.97883606 C400.52515878 74.5039079 404.02689449 78.02558036 407.53070068 81.54524231 C408.32255264 82.34539261 409.1144046 83.14554291 409.93025208 83.96994019 C413.83696947 87.89376223 417.78246933 91.67166608 422.04798889 95.20475769 C423.92444827 96.80997459 425.50988397 98.58432153 427.08929443 100.47883606 C430.48201875 104.45468487 433.8933717 108.19025002 438.02679443 111.41633606 C440.46429443 113.41633606 440.46429443 113.41633606 442.27679443 115.72883606 C444.12559751 118.0002227 445.82157931 119.6504505 448.03656006 121.52375793 C452.74387085 125.59925056 457.11771344 129.96107589 461.49554443 134.38508606 C462.74857361 135.64379517 462.74857361 135.64379517 464.0269165 136.92793274 C467.56765573 140.48488126 471.10236767 144.04779725 474.63763428 147.61018372 C477.23401503 150.2247377 479.83346009 152.8362179 482.43304443 155.44758606 C483.21973511 156.24257507 484.00642578 157.03756409 484.81695557 157.85664368 C485.57133911 158.61433044 486.32572266 159.37201721 487.10296631 160.15266418 C487.75390259 160.80883728 488.40483887 161.46501038 489.07550049 162.1410675 C491.0992563 164.06864605 493.16124068 165.90046012 495.27496338 167.727005 C499.30353257 171.23095226 503.09613635 174.91979157 506.85491943 178.70930481 C507.54549438 179.40134003 508.23606934 180.09337524 508.9475708 180.80638123 C510.43274421 182.2953326 511.91676235 183.78543708 513.39971924 185.27659607 C515.75249178 187.64224242 518.10847032 190.00465434 520.465271 192.36628723 C526.31537763 198.22969656 532.16000826 204.09855458 538.00482178 209.96723938 C542.9541385 214.93634765 547.90553915 219.90336188 552.85968018 224.86766052 C555.17038915 227.18480843 557.47804335 229.50496865 559.7855835 231.82527161 C561.21479578 233.2581195 562.64415039 234.69082546 564.07366943 236.12336731 C565.02155334 237.0790007 565.02155334 237.0790007 565.98858643 238.05393982 C569.0554423 241.1211529 572.17364244 244.07170717 575.45558167 246.90861511 C579.47712763 250.38502529 583.2470801 254.06474083 586.99432373 257.83283997 C587.69947113 258.53784134 588.40461853 259.24284271 589.13113403 259.96920776 C591.43597528 262.27473943 593.73726354 264.58378244 596.03851318 266.89289856 C597.65155956 268.50781318 599.26482921 270.12250482 600.87831116 271.73698425 C605.10849313 275.97096747 609.33566477 280.20794361 613.56219482 284.4455719 C617.86173309 288.75534523 622.16410467 293.06228802 626.46624756 297.36946106 C633.41219729 304.32418179 640.35641686 311.28062439 647.29838562 318.23931885 C647.90793091 318.8503093 648.5174762 319.46129974 649.14549255 320.09080505 C649.66882014 320.61543146 650.19214773 321.14005787 650.73133373 321.68058205 C652.53872481 323.54904878 652.53872481 323.54904878 655.03380287 325.51771218 C658.10877891 329.18495345 658.16103695 331.95459568 658.0851202 336.53007221 C658.09148862 337.34653238 658.09785703 338.16299255 658.10441843 339.00419393 C658.11971168 341.75211727 658.09922586 344.49861536 658.07902527 347.24649048 C658.08263658 349.23168626 658.0884383 351.21687908 658.09624726 353.20206279 C658.11134311 358.66700412 658.09514575 364.13147875 658.07394063 369.59638345 C658.05649593 375.48692109 658.06782197 381.37741109 658.0756073 387.26795959 C658.08567852 398.14655485 658.0732479 409.02498319 658.04976172 419.903554 C658.02821879 429.95958415 658.0172244 440.01556189 658.01655769 450.07161522 C658.01647752 451.07202492 658.01647752 451.07202492 658.01639573 452.09264492 C658.01620711 454.80006407 658.01608555 457.50748322 658.0160534 460.21490238 C658.0157124 485.62723498 657.98863803 511.03947377 657.9478613 536.45177049 C657.91177975 559.0092222 657.89260148 581.56661935 657.88983154 604.12409973 C657.88969429 605.19876327 657.88969429 605.19876327 657.88955426 606.29513719 C657.88927782 608.46262848 657.88900633 610.63011977 657.88873523 612.79761106 C657.88837218 615.67679234 657.88799878 618.55597363 657.88761806 621.43515491 C657.88752784 622.14563604 657.88743761 622.85611716 657.88734465 623.58812801 C657.88435779 645.82809994 657.86688067 668.06806178 657.84693045 690.30802412 C657.84032495 697.68099553 657.83463117 705.05396535 657.83174014 712.42693925 C657.83147897 713.08933004 657.83121779 713.75172084 657.8309487 714.43418408 C657.83068958 715.09515445 657.83043045 715.75612482 657.83016347 716.43712459 C657.82510309 729.19740076 657.81361373 741.95763468 657.78886317 754.71788917 C657.77767699 760.54660784 657.76952474 766.37528531 657.76999664 772.20401573 C657.77030678 777.54809895 657.76128149 782.89208494 657.74502862 788.23614272 C657.74073895 790.16156343 657.73972274 792.08699506 657.7424547 794.01241861 C657.75985034 808.29674065 657.32740403 822.58673692 653.33929443 836.41633606 C653.12974121 837.15488831 652.92018799 837.89344055 652.70428467 838.65437317 C644.37996526 866.3047958 623.37913314 890.87153524 598.17132568 904.53352356 C592.12774368 907.67765752 585.87581131 910.13427073 579.46429443 912.41633606 C578.39179443 912.80821106 577.31929443 913.20008606 576.21429443 913.60383606 C553.16545296 921.13903423 526.79427251 918.70285356 502.85973251 918.66312635 C497.51345518 918.65647617 492.16718616 918.66151351 486.82090759 918.66500854 C476.37914188 918.67002076 465.93740812 918.66444694 455.49564638 918.65515824 C443.31510112 918.64471656 431.13456257 918.64484595 418.95401368 918.64533082 C397.21256085 918.64583019 375.47112279 918.63670328 353.72967529 918.62214661 C332.66880016 918.60805306 311.60793802 918.60097633 290.54705811 918.60163879 C289.24899995 918.60167875 287.95094179 918.60171871 286.61354854 918.60175987 C285.31765471 918.60180023 284.02176087 918.60184058 282.68659753 918.60188216 C258.6508414 918.60257321 234.61509075 918.59667621 210.5793364 918.58772894 C202.10310425 918.58472202 193.62687311 918.58365052 185.15064049 918.58319664 C174.81502512 918.58251222 164.479419 918.57801572 154.14380755 918.56886383 C148.87774665 918.56426964 143.6116975 918.56119151 138.34563446 918.56245804 C133.51414559 918.56356366 128.68268261 918.55997103 123.85119913 918.55280951 C122.11470125 918.55101605 120.37820067 918.55084614 118.64170273 918.5525768 C109.95437635 918.5602684 101.28224023 918.44763732 92.60326862 918.04469776 C91.85806261 918.01592803 91.1128566 917.98715831 90.34506859 917.95751677 C84.71168889 917.6557545 80.35825581 916.63856743 76.46429443 912.41633606 C71.49564929 904.72295003 71.24276327 894.55991929 72.99554443 885.74446106 C74.79380191 879.91967053 77.30908332 875.85314347 82.46429443 872.41633606 C85.02430706 872.22306291 87.4750541 872.14723824 90.03520489 872.16300297 C91.20831496 872.15835706 91.20831496 872.15835706 92.40512422 872.15361729 C95.04769858 872.1456032 97.69004962 872.15191792 100.33262634 872.15805054 C102.23772128 872.15519804 104.14281506 872.15146121 106.0479067 872.14691204 C111.30058952 872.13689366 116.55320586 872.13931444 121.80589378 872.14363897 C127.46469473 872.14610812 133.12347789 872.13705571 138.78227234 872.1292572 C148.5959675 872.11719255 158.40964639 872.11210321 168.22334862 872.11137581 C182.42986082 872.11005161 196.6363335 872.09495158 210.84283177 872.07588064 C217.46172768 872.06702367 224.08062425 872.05871085 230.69952106 872.05055904 C231.36222009 872.04974129 232.02491912 872.04892354 232.70769994 872.04808101 C248.48976101 872.02873266 264.27182601 872.01519998 280.05389404 872.00300598 C280.74456025 872.00246919 281.43522645 872.0019324 282.14682194 872.00137934 C298.24713163 871.9888947 314.34744179 871.97811434 330.44775391 871.96931458 C336.02512615 871.96624488 341.60249838 871.96315246 347.17987061 871.96003723 C347.86818896 871.95965542 348.55650731 871.9592736 349.26568379 871.95888022 C364.99404757 871.95011006 380.72240311 871.93893314 396.45075703 871.91890621 C397.11274599 871.91806355 397.77473495 871.91722088 398.45678418 871.91635268 C405.72105661 871.90702888 412.98532773 871.8969442 420.24959832 871.88629383 C434.41373965 871.866024 448.57782007 871.85571168 462.741976 871.85828304 C472.45787064 871.85932015 482.17371724 871.84964838 491.88959511 871.83164401 C497.49149375 871.82162398 503.09328608 871.81644393 508.69519043 871.82441139 C513.83214268 871.83163035 518.96888859 871.82491793 524.10581473 871.80752598 C525.95592666 871.80366805 527.80605768 871.80477366 529.65616109 871.81158287 C552.38578222 871.88854654 573.99173192 868.0163947 591.23382568 851.84211731 C598.32564228 844.12930102 604.43113801 835.52685746 607.46429443 825.41633606 C607.67441162 824.74344543 607.88452881 824.07055481 608.10101318 823.37727356 C611.20014406 812.34348845 610.60894264 800.69560291 610.5980072 789.3467865 C610.59987712 787.50547008 610.60217854 785.66415406 610.60487252 783.82283866 C610.61097396 778.77944972 610.6108589 773.73607739 610.60967815 768.6926856 C610.60947374 763.24760528 610.61499654 757.80253024 610.61973572 752.35745239 C610.62803227 741.69870051 610.63079005 731.03995416 610.6313481 720.38119932 C610.63182345 711.72157364 610.63387916 703.06194978 610.63704872 694.40232468 C610.64585031 669.85646777 610.65047461 645.31061519 610.64971825 620.76475669 C610.6496983 620.10374673 610.64967836 619.44273677 610.64965781 618.7616962 C610.64961737 617.42497777 610.64957557 616.08825935 610.64953242 614.75154092 C610.64891901 593.9321167 610.65643993 573.11270875 610.67010498 552.29328918 C610.68545484 528.89740855 610.6940593 505.50153781 610.69314176 482.10565174 C610.69280928 469.71902342 610.69557875 457.33241346 610.70631981 444.94578934 C610.71540002 434.4070689 610.71762033 423.86837515 610.71081039 413.3296525 C610.70753343 407.9499609 610.7075308 402.57032058 610.71616364 397.19063377 C610.72397719 392.27113421 610.72265039 387.35172703 610.7138795 382.43222986 C610.71233316 380.6478122 610.71420287 378.86338782 610.71973958 377.07897808 C610.72674357 374.6626465 610.72155059 372.24664413 610.7131834 369.83032417 C610.72063567 368.77947339 610.72063567 368.77947339 610.72823849 367.70739329 C610.69369485 363.02263931 610.14902037 360.07968503 606.79034424 356.7636261 C606.14069702 356.22943054 605.4910498 355.69523499 604.82171631 355.14485168 C600.57558823 351.54800206 596.65380656 347.71782898 592.74554443 343.76008606 C592.04336792 343.05412292 591.34119141 342.34815979 590.61773682 341.62080383 C587.65045677 338.63736231 584.6892408 335.64792896 581.72747803 332.65901184 C579.54810978 330.46143027 577.36564496 328.26695668 575.18304443 326.07258606 C574.52759644 325.40883972 573.87214844 324.74509338 573.19683838 324.06123352 C572.56257935 323.42367126 571.92832031 322.78610901 571.27484131 322.12922668 C570.73049438 321.57964294 570.18614746 321.0300592 569.62530518 320.46382141 C567.6902815 318.63045124 565.71043642 316.88803544 563.69378662 315.14582825 C559.62032757 311.59903492 555.78452444 307.8648578 551.98187256 304.03157043 C551.28154404 303.32978165 550.58121552 302.62799286 549.85966492 301.90493774 C548.3532109 300.39470518 546.84791217 298.88331947 545.34367371 297.37088013 C542.9572949 294.97163022 540.56771227 292.57561218 538.17730713 290.18037415 C532.24372569 284.23348834 526.3156191 278.28115461 520.3873291 272.32899475 C515.36755142 267.28942741 510.34569111 262.25195269 505.3210907 257.2171936 C502.97714373 254.86680652 500.63625065 252.51340736 498.29547119 250.15986633 C496.84603588 248.70679549 495.3964583 247.25386655 493.94671631 245.80110168 C493.30544296 245.15466202 492.66416962 244.50822235 492.00346375 243.8421936 C488.20836875 240.04666264 484.28726437 236.46078952 480.22586823 232.95206451 C478.2629153 231.24077505 476.39469328 229.46146558 474.56195068 227.61164856 C473.9076709 226.95406555 473.25339111 226.29648254 472.57928467 225.61897278 C471.563302 224.5905426 471.563302 224.5905426 470.52679443 223.54133606 C469.80242188 222.81317688 469.07804932 222.0850177 468.33172607 221.33479309 C465.2688702 218.25576655 462.21207133 215.17075283 459.15472412 212.08625793 C456.90585326 209.81918148 454.65389205 207.5552064 452.40179443 205.29133606 C451.38581177 204.26290588 451.38581177 204.26290588 450.3493042 203.21369934 C449.69502441 202.55611633 449.04074463 201.89853333 448.36663818 201.22102356 C447.80452637 200.65367493 447.24241455 200.08632629 446.66326904 199.50178528 C444.71382496 197.65298419 442.7205735 195.89603106 440.68804932 194.14009094 C436.61630485 190.59541443 432.7826347 186.86295284 428.98187256 183.03157043 C428.28154404 182.32978165 427.58121552 181.62799286 426.85966492 180.90493774 C425.3532109 179.39470518 423.84791217 177.88331947 422.34367371 176.37088013 C419.9572949 173.97163022 417.56771227 171.57561218 415.17730713 169.18037415 C409.24372569 163.23348834 403.3156191 157.28115461 397.3873291 151.32899475 C392.36755142 146.28942741 387.34569111 141.25195269 382.3210907 136.2171936 C379.97714373 133.86680652 377.63625065 131.51340736 375.29547119 129.15986633 C373.84603588 127.70679549 372.3964583 126.25386655 370.94671631 124.80110168 C370.30544296 124.15466202 369.66416962 123.50822235 369.00346375 122.8421936 C365.40981862 119.22260135 365.40981862 119.22260135 361.54211998 115.90601921 C357.13518365 112.43361093 354.14397605 108.66925119 351.22665405 103.90391541 C336.71943222 80.26550789 316.45013039 54.4835903 288.77772331 46.33011436 C266.52601073 41.12262667 243.22266106 41.13363374 220.48773193 41.15852356 C219.25253333 41.15924069 219.25253333 41.15924069 217.99238122 41.15997231 C197.42731916 41.18932259 176.88920441 41.78270603 156.3421351 42.60388651 C143.04247208 43.13531951 129.74828635 43.50564112 116.43988037 43.72932434 C115.55872253 43.74417971 114.67756469 43.75903508 113.7697051 43.77434061 C110.22540035 43.83348126 106.68107969 43.89150132 103.1367329 43.94806807 C75.37548595 44.39144103 47.6203517 45.00612552 19.87310743 46.00162101 C17.7857884 46.07491664 15.69836677 46.14358118 13.61084557 46.21084976 C9.77549487 46.33534241 5.94117288 46.48190612 2.10671997 46.63163757 C1.00860312 46.66587259 -0.08951373 46.70010761 -1.22090685 46.73538005 C-20.26386089 47.55418422 -39.32496668 54.13304213 -52.53570557 68.41633606 C-65.42475626 84.80477489 -70.01020834 100.91070739 -69.90751648 121.53605652 C-69.91009513 123.24980679 -69.91399983 124.96355549 -69.91910607 126.6773001 C-69.92932916 131.35892213 -69.92111107 136.04035423 -69.90980923 140.72196698 C-69.90092516 145.78123171 -69.90946796 150.84047041 -69.91601562 155.8997345 C-69.9251557 164.65744612 -69.92385617 173.4151053 -69.91583061 182.17281723 C-69.90458609 194.84140472 -69.91365094 207.50991768 -69.92839242 220.1784987 C-69.95214329 240.74296534 -69.96552698 261.30742277 -69.96954346 281.87190247 C-69.96978833 283.1016571 -69.97003319 284.33141174 -69.97028548 285.59843166 C-69.97283321 299.32866755 -69.97339712 313.05890273 -69.97235107 326.78913879 C-69.97201802 331.77375793 -69.97173263 336.75837707 -69.97149658 341.74299622 C-69.97143379 342.97306728 -69.97137101 344.20313835 -69.97130632 345.4704843 C-69.97070192 365.9670782 -69.98556238 386.46362952 -70.01232964 406.96020567 C-70.02814877 419.60104628 -70.0303781 432.24174958 -70.01519562 444.88259168 C-70.00574762 453.53635194 -70.01045945 462.19002924 -70.02640944 470.84377973 C-70.03512406 475.8389908 -70.0371952 480.83398162 -70.02188301 485.82918167 C-70.00798389 490.39970184 -70.01236263 494.96982257 -70.03140403 499.54032083 C-70.03502372 501.19550832 -70.03184297 502.85072723 -70.02125435 504.50588481 C-70.00784429 506.75306948 -70.01898309 508.99884958 -70.03627682 511.2459774 C-70.03616948 512.49482794 -70.03606214 513.74367848 -70.03595155 515.03037298 C-70.633097 519.0761883 -72.00206092 521.2434319 -74.53570557 524.41633606 C-82.79515373 529.73308927 -93.88951559 529.6612996 -103.24664307 527.90852356 C-105.53677771 527.22851771 -107.42983297 526.55056523 -109.53570557 525.41633606 C-110.71689437 524.9064061 -111.89808317 524.39647614 -113.11506557 523.87109375 C-115.92528421 521.80990954 -116.48136982 520.68434133 -117.18368638 517.22023964 C-117.43025552 512.7982383 -117.44500541 508.42216512 -117.39094543 503.99568176 C-117.39542934 502.2723298 -117.4029826 500.54898353 -117.41334575 498.82565689 C-117.4329126 494.0844027 -117.4087153 489.34421764 -117.37748301 484.60306287 C-117.35140566 479.49172358 -117.36565074 474.38047911 -117.37495422 469.269104 C-117.38682769 459.25151671 -117.36147515 449.23434883 -117.32394064 439.2168383 C-117.28173971 427.54902956 -117.27737739 415.88129991 -117.27492129 404.21342635 C-117.26935293 383.38790533 -117.23104502 362.56257416 -117.17364502 341.73713684 C-117.1180135 321.53758124 -117.08255253 301.33813418 -117.07110596 281.13850403 C-117.0703977 279.89561674 -117.06968944 278.65272945 -117.06895972 277.37217891 C-117.06755046 274.86828814 -117.06614606 272.36439737 -117.06474655 269.86050659 C-117.06405586 268.62529186 -117.06336517 267.39007712 -117.06265354 266.11743164 C-117.06197511 264.8853025 -117.06129668 263.65317337 -117.06059769 262.38370699 C-117.04934989 243.12903806 -117.02236085 223.8743869 -116.9926252 204.61973876 C-116.98370227 198.80585636 -116.97551786 192.99197479 -116.96901441 187.17808914 C-116.95525086 174.94840671 -116.93615 162.71878284 -116.8993007 150.48914546 C-116.88414502 145.4324276 -116.87196044 140.37575404 -116.86832428 135.3190136 C-116.86484866 130.68378607 -116.85206126 126.04867815 -116.83201431 121.41349351 C-116.82633968 119.74250217 -116.82392542 118.07149565 -116.82522339 116.40049517 C-116.84307602 83.43082144 -106.03183458 57.33680099 -83.53570557 33.41633606 C-82.9981665 32.81434387 -82.46062744 32.21235168 -81.90679932 31.59211731 C-78.15988744 27.56348274 -73.92359228 24.36843651 -69.47320557 21.16633606 C-68.88321777 20.74158997 -68.29322998 20.31684387 -67.68536377 19.87922668 C-64.10383363 17.36109623 -60.50297716 15.29699623 -56.53570557 13.41633606 C-55.74808838 13.00512512 -54.96047119 12.59391418 -54.14898682 12.17024231 C-36.92972393 3.25364608 -19.19922962 0.41107763 0 0 Z " fill="#000000" transform="translate(402.53570556640625,153.5836639404297)"/>
<path d="M0 0 C0.99 0 1.98 0 3 0 C3 196.68 3 393.36 3 596 C-189.06 596 -381.12 596 -579 596 C-579 595.34 -579 594.68 -579 594 C-575.81175432 592.40587716 -572.37103338 592.89825265 -568.875 592.9375 C-568.12089844 592.94201172 -567.36679687 592.94652344 -566.58984375 592.95117188 C-564.72652873 592.96296501 -562.86325445 592.98090058 -561 593 C-560.67 592.34 -560.34 591.68 -560 591 C-557.30847736 590.7137306 -554.69902132 590.53256862 -552 590.4375 C-547.10931377 590.67969985 -547.10931377 590.67969985 -543 589 C-539.89957227 588.67553663 -536.7979275 588.48665559 -533.6875 588.28125 C-531.08403248 588.29392201 -531.08403248 588.29392201 -530 587 C-527.98035801 586.92755947 -525.95832876 586.91622812 -523.9375 586.9375 C-522.83277344 586.94652344 -521.72804688 586.95554687 -520.58984375 586.96484375 C-519.30787109 586.98224609 -519.30787109 586.98224609 -518 587 C-518 586.34 -518 585.68 -518 585 C-517.28972656 584.93941406 -516.57945312 584.87882812 -515.84765625 584.81640625 C-514.92855469 584.73261719 -514.00945312 584.64882812 -513.0625 584.5625 C-512.14597656 584.48128906 -511.22945312 584.40007813 -510.28515625 584.31640625 C-508.03840268 584.23955024 -508.03840268 584.23955024 -507 583 C-504.68182911 582.67902249 -502.36220643 582.48779044 -500.03125 582.28125 C-498.00819407 582.20934163 -498.00819407 582.20934163 -497 581 C-495.00458104 580.77471076 -493.00840136 580.55238905 -491.0078125 580.37890625 C-488.69284593 580.07746158 -488.69284593 580.07746158 -486 578 C-484.33333333 578 -482.66666667 578 -481 578 C-480.34 577.34 -479.68 576.68 -479 576 C-476.67182036 575.63239269 -474.3381615 575.29758419 -472 575 C-471.67 574.67 -471.34 574.34 -471 574 C-469.80375 573.87625 -468.6075 573.7525 -467.375 573.625 C-463.1798739 573.16136753 -459.87032426 571.68886877 -456 570 C-453.67305036 569.62468554 -451.34023315 569.28082798 -449 569 C-448.67 568.67 -448.34 568.34 -448 568 C-446.00041636 567.95919217 -443.99954746 567.95745644 -442 568 C-442 567.34 -442 566.68 -442 566 C-441.18015625 565.80664062 -440.3603125 565.61328125 -439.515625 565.4140625 C-438.43796875 565.15367187 -437.3603125 564.89328125 -436.25 564.625 C-434.64898438 564.24214844 -434.64898438 564.24214844 -433.015625 563.8515625 C-430.4236774 563.11963947 -428.35917085 562.25618188 -426 561 C-424.96875 560.67 -423.9375 560.34 -422.875 560 C-419.91349276 559.20386671 -419.91349276 559.20386671 -418 557 C-414.875 556.875 -414.875 556.875 -412 557 C-412 556.34 -412 555.68 -412 555 C-410.02 555 -408.04 555 -406 555 C-406 554.34 -406 553.68 -406 553 C-404.43840941 552.51787786 -402.87568072 552.03944127 -401.3125 551.5625 C-400.00732422 551.16224609 -400.00732422 551.16224609 -398.67578125 550.75390625 C-396.12974079 550.03655471 -393.5996577 549.482459 -391 549 C-391 548.34 -391 547.68 -391 547 C-389.02 547 -387.04 547 -385 547 C-385 546.34 -385 545.68 -385 545 C-382.34771188 543.92474806 -379.71631546 542.90543849 -377 542 C-376.67 541.34 -376.34 540.68 -376 540 C-372.24079436 538.06669424 -369.19075475 537.80508117 -365 538 C-365 537.34 -365 536.68 -365 536 C-361.91190305 534.23537317 -360.76687864 534 -357 534 C-357 533.34 -357 532.68 -357 532 C-355.68 532 -354.36 532 -353 532 C-353 531.34 -353 530.68 -353 530 C-351.68 530 -350.36 530 -349 530 C-349 529.34 -349 528.68 -349 528 C-348.43410156 527.80664062 -347.86820313 527.61328125 -347.28515625 527.4140625 C-346.55167969 527.15367187 -345.81820312 526.89328125 -345.0625 526.625 C-343.96615234 526.24214844 -343.96615234 526.24214844 -342.84765625 525.8515625 C-340.81317884 525.14728587 -340.81317884 525.14728587 -340 523 C-338.33333333 522.33333333 -336.66666667 521.66666667 -335 521 C-333.989375 520.29875 -332.97875 519.5975 -331.9375 518.875 C-329 517 -329 517 -325 517 C-325 516.34 -325 515.68 -325 515 C-323.68 515 -322.36 515 -321 515 C-321 514.34 -321 513.68 -321 513 C-320.195625 512.71125 -319.39125 512.4225 -318.5625 512.125 C-315.8673532 511.26737432 -315.8673532 511.26737432 -315 509 C-313.2578125 508.2890625 -313.2578125 508.2890625 -311.125 507.625 C-307.82688143 506.51391246 -307.82688143 506.51391246 -305.5 504 C-303.44012292 501.25349722 -301.15454009 500.78954726 -297.9375 499.80859375 C-295.72669032 498.88593729 -294.61805157 497.74042522 -293 496 C-291.34928604 494.97388051 -289.68029994 493.97691857 -288 493 C-287.01 492.29875 -286.02 491.5975 -285 490.875 C-282 489 -282 489 -279.25 488.5 C-278.5075 488.335 -277.765 488.17 -277 488 C-276.71125 487.401875 -276.4225 486.80375 -276.125 486.1875 C-274.60112579 483.22441125 -272.57960105 482.47043866 -269.65625 481.02734375 C-267.66952185 479.95352189 -267.66952185 479.95352189 -266 477 C-264.34183216 476.31246699 -262.67540664 475.64438717 -261 475 C-260.67 474.34 -260.34 473.68 -260 473 C-258.8553125 472.5978125 -258.8553125 472.5978125 -257.6875 472.1875 C-254.39844483 470.73419655 -253.20953283 468.77973485 -251 466 C-250.3709375 465.85433594 -249.741875 465.70867187 -249.09375 465.55859375 C-246.41704917 464.84447394 -245.41707134 463.65517741 -243.5625 461.625 C-240.88495367 458.81614543 -238.3666964 456.94914002 -235 455 C-234.175 454.175 -233.35 453.35 -232.5 452.5 C-230 450 -230 450 -227.65625 448.65625 C-224.62198102 446.76429405 -222.46336892 444.58653737 -220 442 C-215.52496665 437.30121498 -215.52496665 437.30121498 -212.66410828 435.65971375 C-209.62517823 433.76648966 -207.39071458 431.61628316 -204.87426758 429.06958008 C-204.3890715 428.58146347 -203.90387543 428.09334686 -203.40397644 427.59043884 C-202.35796701 426.53685489 -201.31427317 425.48096788 -200.2726841 424.42301369 C-198.62564379 422.75034995 -196.97235095 421.08409926 -195.31730652 419.4193573 C-191.81005631 415.88931374 -188.31074331 412.35146652 -184.8125 408.8125 C-180.74799284 404.70083274 -176.68031876 400.59240631 -172.60416222 396.49228477 C-170.97253228 394.84765577 -169.34702016 393.19713754 -167.72163391 391.54634094 C-166.72723368 390.54468 -165.73255402 389.54329634 -164.73754883 388.54223633 C-163.86882645 387.66304031 -163.00010406 386.7838443 -162.10505676 385.87800598 C-160 384 -160 384 -158 384 C-157.93554688 383.278125 -157.87109375 382.55625 -157.8046875 381.8125 C-156.74646182 378.11384713 -154.92916065 376.60096061 -152.125 374 C-148.73547717 370.83776296 -146.30672515 368.00711112 -144 364 C-142.5 362.375 -142.5 362.375 -141 361 C-138.43925742 358.53992543 -136.80800041 356.06573983 -135 353 C-133.33333333 351.33333333 -131.66666667 349.66666667 -130 348 C-128.98812105 346.34051852 -127.9873454 344.67419438 -127 343 C-126.29875 342.319375 -125.5975 341.63875 -124.875 340.9375 C-122.85873999 339.1937893 -122.85873999 339.1937893 -122.5625 337 C-121.71474487 333.98575955 -119.39441167 332.91552934 -117 331 C-116.3574765 328.93125966 -116.3574765 328.93125966 -116 327 C-115.01 326.34 -114.02 325.68 -113 325 C-112.835 324.34 -112.67 323.68 -112.5 323 C-112 321 -112 321 -109 319 C-108.690625 318.175 -108.38125 317.35 -108.0625 316.5 C-107 314 -107 314 -104.9375 313 C-104.298125 312.67 -103.65875 312.34 -103 312 C-102.18828772 309.44480079 -102.18828772 309.44480079 -102 307 C-101.01 306.67 -100.02 306.34 -99 306 C-98.896875 305.278125 -98.79375 304.55625 -98.6875 303.8125 C-97.93206053 300.72206579 -96.84468685 298.58256159 -95 296 C-94.34 296 -93.68 296 -93 296 C-92.938125 295.34 -92.87625 294.68 -92.8125 294 C-91.8369141 290.39783666 -90.13220875 287.84177103 -88.05859375 284.76953125 C-86.82887301 283.05761377 -86.82887301 283.05761377 -87 281 C-86.360625 280.54625 -85.72125 280.0925 -85.0625 279.625 C-82.7323843 277.78915127 -82.39598702 276.87090587 -82 274 C-81.34 274 -80.68 274 -80 274 C-80 272.68 -80 271.36 -80 270 C-79.34 270 -78.68 270 -78 270 C-78 268.68 -78 267.36 -78 266 C-77.34 266 -76.68 266 -76 266 C-75.71125 265.05125 -75.4225 264.1025 -75.125 263.125 C-74 260 -74 260 -72 258 C-72 257.34 -72 256.68 -72 256 C-71.34 255.34 -70.68 254.68 -70 254 C-69.67 253.01 -69.34 252.02 -69 251 C-68.34 251 -67.68 251 -67 251 C-67 249.68 -67 248.36 -67 247 C-66.34 247 -65.68 247 -65 247 C-64.896875 246.34 -64.79375 245.68 -64.6875 245 C-63.80786436 241.16158991 -62.43030104 237.66903309 -61 234 C-60.34 234 -59.68 234 -59 234 C-59 232.68 -59 231.36 -59 230 C-58.34 230 -57.68 230 -57 230 C-57 228.68 -57 227.36 -57 226 C-56.34 226 -55.68 226 -55 226 C-55 224.68 -55 223.36 -55 222 C-54.34 222 -53.68 222 -53 222 C-52.67 219.69 -52.34 217.38 -52 215 C-51.34 215 -50.68 215 -50 215 C-50 213.68 -50 212.36 -50 211 C-49.34 211 -48.68 211 -48 211 C-47.86722656 210.28457031 -47.73445313 209.56914063 -47.59765625 208.83203125 C-47.01226465 206.05811678 -46.26841556 203.39700725 -45.4375 200.6875 C-45.03337891 199.36298828 -45.03337891 199.36298828 -44.62109375 198.01171875 C-44.41613281 197.34785156 -44.21117187 196.68398438 -44 196 C-43.34 196 -42.68 196 -42 196 C-42 194.02 -42 192.04 -42 190 C-41.34 190 -40.68 190 -40 190 C-39.855625 189.278125 -39.71125 188.55625 -39.5625 187.8125 C-39.04166667 185.20833333 -38.52083333 182.60416667 -38 180 C-37.34 180 -36.68 180 -36 180 C-36.061875 178.6078125 -36.061875 178.6078125 -36.125 177.1875 C-36 174 -36 174 -34 171 C-34 169.68 -34 168.36 -34 167 C-33.34 166.67 -32.68 166.34 -32 166 C-31.34227572 162.97065509 -31.34227572 162.97065509 -31 160 C-30.34 160 -29.68 160 -29 160 C-29.061875 159.154375 -29.12375 158.30875 -29.1875 157.4375 C-29.00643551 154.11798443 -28.27087705 152.04284495 -26.86328125 149.07421875 C-25.40966446 145.58159197 -24.57615083 141.91878877 -23.6484375 138.2578125 C-23 136 -23 136 -22 135 C-21.79395915 133.67218122 -21.6337041 132.33704105 -21.5 131 C-21.11111111 127.11111111 -21.11111111 127.11111111 -20 126 C-19.835 124.845 -19.67 123.69 -19.5 122.5 C-19 119 -19 119 -18 118 C-17.72046781 115.9412232 -17.55265649 113.88271568 -17.37890625 111.8125 C-17.25386719 111.214375 -17.12882812 110.61625 -17 110 C-16.34 109.67 -15.68 109.34 -15 109 C-15.061875 107.6078125 -15.061875 107.6078125 -15.125 106.1875 C-15 103 -15 103 -13 100 C-12.58256635 97.75354124 -12.58256635 97.75354124 -12.4375 95.375 C-12.09841828 91.09841828 -12.09841828 91.09841828 -11 90 C-10.76924918 88.65252916 -10.58846937 87.29622435 -10.4375 85.9375 C-10.293125 84.638125 -10.14875 83.33875 -10 82 C-9.34 82 -8.68 82 -8 82 C-8.01160156 81.14535156 -8.02320313 80.29070312 -8.03515625 79.41015625 C-8.04869141 77.75306641 -8.04869141 77.75306641 -8.0625 76.0625 C-8.07410156 74.96035156 -8.08570313 73.85820313 -8.09765625 72.72265625 C-8 70 -8 70 -7 69 C-6.79111292 67.00396794 -6.63224523 65.00257059 -6.5 63 C-6.11111111 57.11111111 -6.11111111 57.11111111 -5 56 C-4.79068103 53.83703727 -4.63202931 51.6690529 -4.5 49.5 C-4.11111111 43.11111111 -4.11111111 43.11111111 -3 42 C-2.76244437 38.66290895 -2.60425121 35.33311258 -2.48242188 31.99023438 C-2.21136541 26.40033416 -2.21136541 26.40033416 -0.98852539 24.08422852 C0.23422918 21.50614608 0.22839016 19.64155404 0.1953125 16.796875 C0.18564453 15.32734375 0.18564453 15.32734375 0.17578125 13.828125 C0.15902344 12.81234375 0.14226563 11.7965625 0.125 10.75 C0.11146484 9.203125 0.11146484 9.203125 0.09765625 7.625 C0.07412011 5.08309713 0.04124023 2.5416672 0 0 Z " fill="#000000" transform="translate(1277,684)"/>
<path d="M0 0 C10.66565537 9.7454714 19.96011473 20.0025106 28 32 C28.64066406 32.9178125 29.28132813 33.835625 29.94140625 34.78125 C34.89651718 42.14186221 38.52187244 50.0918609 42.16015625 58.15722656 C42.82354549 59.61282598 43.51600938 61.05517303 44.21875 62.4921875 C60.14431704 95.4992095 59.48873225 137.23389494 48.625 171.625 C48.09627835 173.08807632 47.55290297 174.54588955 47 176 C46.61457031 177.06863281 46.22914063 178.13726563 45.83203125 179.23828125 C38.67763254 198.21647614 28.18669404 216.32316009 13.51611328 230.48168945 C11.84658121 232.09035997 11.84658121 232.09035997 10.0625 234.5 C7.07063755 238.12649994 3.61439173 241.0058627 0 244 C-1.50240234 245.25876953 -1.50240234 245.25876953 -3.03515625 246.54296875 C-36.17951037 273.78016719 -77.46797772 284.9121315 -119.96289062 281.78173828 C-137.77045532 279.99658953 -154.64950044 275.17874004 -171 268 C-172.24716797 267.45279297 -172.24716797 267.45279297 -173.51953125 266.89453125 C-186.66663942 260.69052961 -199.12679428 252.62425642 -210 243 C-211.051875 242.11054687 -211.051875 242.11054687 -212.125 241.203125 C-242.6545247 215.20532662 -260.97363932 177.42082278 -264.80517578 137.60888672 C-267.75609638 98.09317556 -257.65689675 57.40456602 -233 26 C-232.43539062 25.23300781 -231.87078125 24.46601562 -231.2890625 23.67578125 C-213.69955592 0.44073435 -190.43151911 -15.46802094 -164 -27 C-163.09378906 -27.39960937 -162.18757813 -27.79921875 -161.25390625 -28.2109375 C-108.52312727 -49.30324909 -42.3233339 -37.49919582 0 0 Z " fill="#000000" transform="translate(428,755)"/>
<path d="M0 0 C0.85948242 0.16628906 1.71896484 0.33257812 2.60449219 0.50390625 C21.61112796 4.30382603 41.45211929 9.68413143 58 20 C58.93457031 20.55300781 59.86914062 21.10601562 60.83203125 21.67578125 C67.72664101 25.87040397 73.85371251 30.78817942 80 36 C80.63679688 36.50144531 81.27359375 37.00289063 81.9296875 37.51953125 C105.0337824 55.99216012 117.77543925 87.53150483 122 116 C122.13148438 116.86496094 122.26296875 117.72992188 122.3984375 118.62109375 C126.55873073 151.95965975 117.8085744 185.33115844 100.8203125 213.91015625 C99.37121405 216.36989202 98.04641418 218.83498852 96.75 221.375 C92.67600421 228.76343305 87.15368498 235.3470612 82 242 C81.29488281 242.91136719 80.58976562 243.82273437 79.86328125 244.76171875 C72.61457788 253.95556684 65.12115329 263.10909103 56.6953125 271.25 C53.70827444 274.33339412 51.0739152 277.70661317 48.38671875 281.05078125 C45.97172607 284.03493751 43.48966585 286.95302008 41 289.875 C35.89217917 295.99010848 31.43368671 302.38776473 27 309 C26.42121094 309.82628906 25.84242188 310.65257812 25.24609375 311.50390625 C21.80136619 316.46811264 19.31095529 321.43153577 17 327 C16.53722656 328.01707031 16.07445312 329.03414062 15.59765625 330.08203125 C6.47473642 350.39387565 2.99154314 370.47516797 2.421875 392.62109375 C2.37983534 394.11748478 2.33735815 395.61386358 2.29443359 397.11022949 C2.19124888 400.74002607 2.09397074 404.36995182 2 408 C-12.35169151 408.04677869 -26.70337115 408.08188449 -41.05512333 408.10362434 C-47.71931493 408.1140587 -54.38344533 408.12821169 -61.04760742 408.15087891 C-67.47962892 408.17261946 -73.91160114 408.18457125 -80.34365654 408.18975449 C-82.7968263 408.19344804 -85.24999339 408.20066059 -87.70314217 408.21146011 C-91.14077698 408.22599092 -94.57820853 408.22797725 -98.01586914 408.22705078 C-99.02863419 408.23424133 -100.04139923 408.24143188 -101.08485413 408.24884033 C-106.45725657 408.23318688 -110.92000754 407.77996037 -116 406 C-117.14012548 380.00919486 -118.23447074 354.28089775 -111 329 C-110.51853516 327.24816406 -110.51853516 327.24816406 -110.02734375 325.4609375 C-107.95856599 318.30815932 -105.27745874 311.67695052 -102 305 C-101.71640625 304.41379883 -101.4328125 303.82759766 -101.140625 303.22363281 C-93.90369683 288.28213598 -86.32182113 274.06847522 -76 261 C-74.80648517 259.41849437 -73.61299362 257.83697053 -72.42089844 256.25439453 C-68.55815121 251.15146994 -64.5274341 246.25257141 -60.3125 241.4375 C-49.5621585 229.10410248 -39.78325766 215.7994737 -31 202 C-30.33742188 201.01644531 -29.67484375 200.03289062 -28.9921875 199.01953125 C-17.7707095 181.84597651 -12.47240692 164.13856172 -15.19921875 143.65625 C-17.94059854 131.13951107 -25.58632656 120.45944153 -35.80078125 112.9375 C-39.20757228 110.87429078 -42.40479908 109.61065573 -46.1875 108.375 C-47.39792969 107.97023438 -48.60835937 107.56546875 -49.85546875 107.1484375 C-75.83607552 99.51161638 -104.94560211 103.90495244 -130 113 C-130.72525879 113.25652344 -131.45051758 113.51304687 -132.19775391 113.77734375 C-142.81244598 117.56070874 -152.37936434 122.13026694 -162 128 C-162.66 128.33 -163.32 128.66 -164 129 C-164 128.34 -164 127.68 -164 127 C-164.66 127 -165.32 127 -166 127 C-168.98891474 119.13095455 -171.56162425 111.2347057 -173.8125 103.125 C-175.97927671 95.3309976 -178.39591835 87.65873729 -181 80 C-183.91979902 71.40782527 -186.59452042 62.78476219 -189.00976562 54.03710938 C-190.31659366 49.3118338 -191.74036304 44.65801859 -193.34057617 40.02319336 C-194.67248821 35.93672352 -194.67248821 35.93672352 -195 34 C-177.93310782 11.51641156 -123.63336104 3.98403021 -98 0 C-97.08492676 -0.14953125 -96.16985352 -0.2990625 -95.22705078 -0.453125 C-64.77381073 -5.24549515 -30.32287369 -6.04790728 0 0 Z " fill="#000000" transform="translate(712,335)"/>
<path d="M0 0 C14.88791389 12.60397255 25.27570105 31.188549 28 50.5625 C29.46065234 76.81394829 27.23735168 100.72342848 9.19921875 121.2421875 C-5.45201153 136.70014627 -24.94004779 144.32481719 -45.984375 145.8515625 C-68.64881325 146.34426768 -89.07120891 139.49613407 -106.625 124.83984375 C-122.98994424 109.14780018 -129.45694951 87.81515718 -130.03125 65.71484375 C-130.1190374 42.27012249 -121.87777973 21.88116912 -105.8125 4.9375 C-78.025117 -22.24250851 -30.56221505 -22.46453414 0 0 Z " fill="#000000" transform="translate(703,799.4375)"/>
<path d="M0 0 C5.72079567 4.46743263 9.6609372 10.6411621 11.11328125 17.78125 C11.22189637 19.7000332 11.27909555 21.62199167 11.30273438 23.54370117 C11.32781067 25.28021187 11.32781067 25.28021187 11.35339355 27.05180359 C11.37375671 28.91914909 11.37375671 28.91914909 11.39453125 30.82421875 C11.42265118 32.77837691 11.45077641 34.73253502 11.47922516 36.68668842 C11.53774963 40.81077214 11.58792501 44.93496577 11.63934326 49.05914307 C11.69824287 53.75175279 11.76435542 58.44422564 11.83203125 63.13671875 C11.85239441 65.01317329 11.85239441 65.01317329 11.87316895 66.92753601 C11.89824524 68.64986198 11.89824524 68.64986198 11.92382812 70.40698242 C11.9363562 71.42306076 11.94888428 72.4391391 11.96179199 73.48600769 C11.85771873 75.74535512 11.85771873 75.74535512 13.11328125 76.78125 C14.94232937 76.88894541 16.77548582 76.92751632 18.60766602 76.93896484 C20.3706881 76.95435806 20.3706881 76.95435806 22.16932678 76.97006226 C24.09258034 76.98101425 24.09258034 76.98101425 26.0546875 76.9921875 C28.05867594 77.01307144 30.06266437 77.03397292 32.06664181 77.05588722 C37.02100191 77.10905921 41.97537338 77.15310965 46.92993164 77.18261719 C49.70277175 77.19957667 52.47533774 77.22433684 55.24803162 77.25747681 C57.86011121 77.28835144 60.47235653 77.30784332 63.08460999 77.31454468 C70.59178334 77.41840803 77.21813142 77.62169501 83.28515625 82.54296875 C89.24751957 89.818823 93.88398799 97.07034507 93.11328125 106.78125 C91.13779504 114.85671726 86.7459397 120.80138993 80.11328125 125.78125 C75.87842934 127.46336847 72.28257952 128.04448308 67.74072266 128.10009766 C66.49988922 128.11996735 65.25905579 128.13983704 63.98062134 128.16030884 C62.64203062 128.17218233 61.30343801 128.18384536 59.96484375 128.1953125 C58.5833523 128.21404091 57.20187209 128.23361556 55.82040405 128.2539978 C52.20048675 128.30514861 48.58053243 128.34486497 44.96044922 128.38214111 C41.2599993 128.42228827 37.5597011 128.47333152 33.859375 128.5234375 C26.61078148 128.6199946 19.36211404 128.70446334 12.11328125 128.78125 C12.10115097 129.88879135 12.10115097 129.88879135 12.08877563 131.01870728 C12.0106888 137.99243154 11.92335589 144.96598603 11.82575417 151.93946266 C11.77590445 155.52421864 11.72957397 159.10894676 11.69140625 162.69384766 C11.65440962 166.15640241 11.60801182 169.61871749 11.55521774 173.08106613 C11.52778992 175.03847138 11.50998536 176.99600385 11.49234009 178.95352173 C11.4724704 180.15431366 11.45260071 181.35510559 11.43212891 182.59228516 C11.41880524 183.64485504 11.40548157 184.69742493 11.39175415 185.78189087 C10.83744287 191.75223337 8.58890981 195.97670464 5.11328125 200.78125 C4.55640625 201.6475 3.99953125 202.51375 3.42578125 203.40625 C-1.36448517 208.32598308 -6.98864012 210.02801314 -13.76171875 210.40625 C-21.48272713 210.11117962 -27.42946504 206.97112617 -33.05859375 201.77734375 C-37.97515755 196.4239778 -40.11871723 191.9950236 -40.18969727 184.62988281 C-40.20633926 183.41222229 -40.22298126 182.19456177 -40.24012756 180.94000244 C-40.24854172 179.63464539 -40.25695587 178.32928833 -40.265625 176.984375 C-40.28180915 175.62626968 -40.29899011 174.26817591 -40.31712341 172.91009521 C-40.36268379 169.34642864 -40.39756305 165.78274653 -40.42932129 162.21893311 C-40.48133011 156.50067439 -40.54620628 150.78258417 -40.61753654 145.06453705 C-40.64041405 143.06530953 -40.65636751 141.0660067 -40.67225647 139.06671143 C-40.68574631 137.86165955 -40.69923615 136.65660767 -40.71313477 135.41503906 C-40.72264664 134.34868225 -40.73215851 133.28232544 -40.74195862 132.18365479 C-40.61725595 129.82961412 -40.61725595 129.82961412 -41.88671875 128.78125 C-43.70548922 128.68404316 -45.52799912 128.65608984 -47.34936523 128.65527344 C-49.10270424 128.64956329 -49.10270424 128.64956329 -50.89146423 128.64373779 C-52.16735916 128.64271057 -53.44325409 128.64168335 -54.7578125 128.640625 C-56.75480338 128.62698794 -58.75179456 128.6133204 -60.74877262 128.59791946 C-65.68337482 128.55996489 -70.61772551 128.52861834 -75.55249023 128.53076172 C-78.31350256 128.5314 -81.07385174 128.51880202 -83.83473206 128.49176025 C-86.43352376 128.4665682 -89.03258172 128.45993946 -91.63145447 128.47454834 C-100.78963268 128.34898251 -107.44887998 126.47509815 -114.54296875 120.5703125 C-119.85134122 114.33972278 -122.17110633 109.73155186 -121.82421875 101.40625 C-120.84857042 93.23098989 -117.19787628 87.38935044 -111.0234375 82.0703125 C-103.2200337 77.36259174 -95.89254657 77.3143317 -86.98046875 77.26953125 C-85.6466713 77.25265782 -84.3128895 77.23450405 -82.97912598 77.21513367 C-79.49402762 77.16791582 -76.0089927 77.13792528 -72.52368164 77.11169434 C-68.9570666 77.08174504 -65.39066962 77.03526469 -61.82421875 76.99023438 C-54.84517693 76.90452328 -47.86606225 76.8370361 -40.88671875 76.78125 C-40.88529373 76.03924347 -40.88386871 75.29723694 -40.88240051 74.53274536 C-40.86448713 67.50122022 -40.82262916 60.47032548 -40.75462818 53.4391346 C-40.72050115 49.82522595 -40.69527077 46.21173358 -40.69116211 42.59765625 C-40.686848 39.10240237 -40.65813304 35.60808523 -40.61328697 32.11312485 C-40.5941918 30.14705103 -40.59963899 28.18078743 -40.60566711 26.21463013 C-40.44542699 16.25821841 -38.34669829 8.97171593 -31.19921875 1.84375 C-21.97931363 -5.53217409 -9.91732553 -6.4062227 0 0 Z " fill="#F6F6F6" transform="translate(337.88671875,774.21875)"/>
<path d="M0 0 C0.33 0 0.66 0 1 0 C1 7.59 1 15.18 1 23 C-1 22 -1 22 -2 19 C-2.12213515 16.13408445 -2.18512182 13.30320488 -2.1875 10.4375 C-2.19974609 9.65697266 -2.21199219 8.87644531 -2.22460938 8.07226562 C-2.22985217 6.04679965 -2.12234328 4.02177448 -2 2 C-1.34 1.34 -0.68 0.68 0 0 Z " fill="#010101" transform="translate(1279,574)"/>
</svg>
