<?xml version="1.0" encoding="UTF-8"?>
<!-- Generator: visioncortex VTracer 0.6.1 -->
<svg version="1.1" xmlns="http://www.w3.org/2000/svg" width="1280" height="1280">
<path d="M0 0 C135.3 0 270.6 0 410 0 C410 0.66 410 1.32 410 2 C412.31 2.33 414.62 2.66 417 3 C417 3.66 417 4.32 417 5 C418.98 5 420.96 5 423 5 C423 5.66 423 6.32 423 7 C424.32 7.33 425.64 7.66 427 8 C427 8.66 427 9.32 427 10 C427.99 10 428.98 10 430 10 C430 10.66 430 11.32 430 12 C430.99 12 431.98 12 433 12 C433 12.99 433 13.98 433 15 C434.32 15 435.64 15 437 15 C438.75 16.25 438.75 16.25 440 18 C440 19.32 440 20.64 440 22 C440.99 22 441.98 22 443 22 C443 22.99 443 23.98 443 25 C443.66 25 444.32 25 445 25 C445 25.99 445 26.98 445 28 C445.66 28 446.32 28 447 28 C447.33 29.32 447.66 30.64 448 32 C448.66 32 449.32 32 450 32 C450 33.98 450 35.96 450 38 C450.66 38 451.32 38 452 38 C452.33 40.31 452.66 42.62 453 45 C453.66 45 454.32 45 455 45 C455 67.11 455 89.22 455 112 C500.21 112 545.42 112 592 112 C592.33 112.99 592.66 113.98 593 115 C595.31 115 597.62 115 600 115 C600 115.66 600 116.32 600 117 C600.99 117 601.98 117 603 117 C603 117.99 603 118.98 603 120 C604.32 120 605.64 120 607 120 C608.75 121.25 608.75 121.25 610 123 C610 124.32 610 125.64 610 127 C610.99 127.33 611.98 127.66 613 128 C613 129.32 613 130.64 613 132 C613.66 132 614.32 132 615 132 C615 134.64 615 137.28 615 140 C615.66 140 616.32 140 617 140 C617 422.15 617 704.3 617 995 C616.34 995 615.68 995 615 995 C615 997.31 615 999.62 615 1002 C614.34 1002 613.68 1002 613 1002 C613 1002.99 613 1003.98 613 1005 C612.01 1005 611.02 1005 610 1005 C610 1005.99 610 1006.98 610 1008 C609.34 1008 608.68 1008 608 1008 C608 1008.66 608 1009.32 608 1010 C607.01 1010 606.02 1010 605 1010 C605 1010.99 605 1011.98 605 1013 C604.34 1013 603.68 1013 603 1013 C603 1013.66 603 1014.32 603 1015 C602.01 1015 601.02 1015 600 1015 C600 1015.99 600 1016.98 600 1018 C599.34 1018 598.68 1018 598 1018 C598 1018.66 598 1019.32 598 1020 C597.01 1020 596.02 1020 595 1020 C595 1020.99 595 1021.98 595 1023 C594.34 1023 593.68 1023 593 1023 C593 1023.66 593 1024.32 593 1025 C592.01 1025 591.02 1025 590 1025 C590 1025.99 590 1026.98 590 1028 C589.34 1028 588.68 1028 588 1028 C588 1028.66 588 1029.32 588 1030 C587.01 1030 586.02 1030 585 1030 C585 1030.99 585 1031.98 585 1033 C584.34 1033 583.68 1033 583 1033 C583 1033.66 583 1034.32 583 1035 C582.01 1035 581.02 1035 580 1035 C580 1035.99 580 1036.98 580 1038 C579.34 1038 578.68 1038 578 1038 C578 1038.66 578 1039.32 578 1040 C577.01 1040 576.02 1040 575 1040 C575 1040.99 575 1041.98 575 1043 C574.34 1043 573.68 1043 573 1043 C573 1043.66 573 1044.32 573 1045 C572.01 1045 571.02 1045 570 1045 C570 1045.99 570 1046.98 570 1048 C569.34 1048 568.68 1048 568 1048 C568 1048.66 568 1049.32 568 1050 C567.01 1050 566.02 1050 565 1050 C565 1050.99 565 1051.98 565 1053 C564.34 1053 563.68 1053 563 1053 C563 1053.66 563 1054.32 563 1055 C562.01 1055 561.02 1055 560 1055 C560 1055.99 560 1056.98 560 1058 C559.34 1058 558.68 1058 558 1058 C558 1058.66 558 1059.32 558 1060 C557.01 1060 556.02 1060 555 1060 C555 1060.99 555 1061.98 555 1063 C554.34 1063 553.68 1063 553 1063 C553 1063.66 553 1064.32 553 1065 C552.01 1065 551.02 1065 550 1065 C550 1065.99 550 1066.98 550 1068 C549.34 1068 548.68 1068 548 1068 C548 1068.66 548 1069.32 548 1070 C547.01 1070 546.02 1070 545 1070 C545 1070.99 545 1071.98 545 1073 C544.34 1073 543.68 1073 543 1073 C543 1073.66 543 1074.32 543 1075 C542.01 1075 541.02 1075 540 1075 C540 1075.99 540 1076.98 540 1078 C539.34 1078 538.68 1078 538 1078 C538 1078.66 538 1079.32 538 1080 C537.01 1080 536.02 1080 535 1080 C535 1080.99 535 1081.98 535 1083 C534.34 1083 533.68 1083 533 1083 C533 1083.66 533 1084.32 533 1085 C532.01 1085 531.02 1085 530 1085 C530 1085.99 530 1086.98 530 1088 C529.34 1088 528.68 1088 528 1088 C528 1088.66 528 1089.32 528 1090 C527.01 1090 526.02 1090 525 1090 C525 1090.99 525 1091.98 525 1093 C524.34 1093 523.68 1093 523 1093 C523 1093.66 523 1094.32 523 1095 C522.01 1095 521.02 1095 520 1095 C520 1095.99 520 1096.98 520 1098 C519.34 1098 518.68 1098 518 1098 C518 1098.66 518 1099.32 518 1100 C517.01 1100 516.02 1100 515 1100 C515 1100.99 515 1101.98 515 1103 C514.34 1103 513.68 1103 513 1103 C513 1103.66 513 1104.32 513 1105 C512.01 1105 511.02 1105 510 1105 C510 1105.99 510 1106.98 510 1108 C509.34 1108 508.68 1108 508 1108 C508 1108.66 508 1109.32 508 1110 C507.01 1110 506.02 1110 505 1110 C505 1110.99 505 1111.98 505 1113 C504.34 1113 503.68 1113 503 1113 C503 1113.66 503 1114.32 503 1115 C502.01 1115 501.02 1115 500 1115 C500 1115.99 500 1116.98 500 1118 C499.34 1118 498.68 1118 498 1118 C498 1118.66 498 1119.32 498 1120 C497.01 1120 496.02 1120 495 1120 C495 1120.99 495 1121.98 495 1123 C494.34 1123 493.68 1123 493 1123 C493 1123.66 493 1124.32 493 1125 C492.01 1125 491.02 1125 490 1125 C490 1125.99 490 1126.98 490 1128 C489.34 1128 488.68 1128 488 1128 C488 1128.66 488 1129.32 488 1130 C487.01 1130 486.02 1130 485 1130 C485 1130.99 485 1131.98 485 1133 C484.34 1133 483.68 1133 483 1133 C483 1133.66 483 1134.32 483 1135 C482.01 1135 481.02 1135 480 1135 C480 1135.99 480 1136.98 480 1138 C479.34 1138 478.68 1138 478 1138 C478 1138.66 478 1139.32 478 1140 C477.01 1140 476.02 1140 475 1140 C475 1140.99 475 1141.98 475 1143 C474.34 1143 473.68 1143 473 1143 C473 1143.66 473 1144.32 473 1145 C472.01 1145 471.02 1145 470 1145 C470 1145.99 470 1146.98 470 1148 C469.34 1148 468.68 1148 468 1148 C468 1148.66 468 1149.32 468 1150 C467.01 1150 466.02 1150 465 1150 C465 1150.99 465 1151.98 465 1153 C464.34 1153 463.68 1153 463 1153 C463 1153.66 463 1154.32 463 1155 C462.01 1155 461.02 1155 460 1155 C460 1155.99 460 1156.98 460 1158 C459.34 1158 458.68 1158 458 1158 C458 1158.66 458 1159.32 458 1160 C457.01 1160 456.02 1160 455 1160 C455 1160.99 455 1161.98 455 1163 C454.34 1163 453.68 1163 453 1163 C453 1163.66 453 1164.32 453 1165 C452.01 1165 451.02 1165 450 1165 C450 1165.99 450 1166.98 450 1168 C449.34 1168 448.68 1168 448 1168 C448 1168.66 448 1169.32 448 1170 C447.01 1170 446.02 1170 445 1170 C445 1170.99 445 1171.98 445 1173 C444.34 1173 443.68 1173 443 1173 C443 1173.66 443 1174.32 443 1175 C442.01 1175 441.02 1175 440 1175 C440 1175.99 440 1176.98 440 1178 C439.34 1178 438.68 1178 438 1178 C438 1178.66 438 1179.32 438 1180 C437.01 1180 436.02 1180 435 1180 C435 1180.99 435 1181.98 435 1183 C434.34 1183 433.68 1183 433 1183 C433 1183.66 433 1184.32 433 1185 C432.01 1185 431.02 1185 430 1185 C430 1185.99 430 1186.98 430 1188 C429.34 1188 428.68 1188 428 1188 C428 1188.66 428 1189.32 428 1190 C427.01 1190 426.02 1190 425 1190 C425 1190.99 425 1191.98 425 1193 C424.34 1193 423.68 1193 423 1193 C423 1193.66 423 1194.32 423 1195 C422.01 1195 421.02 1195 420 1195 C420 1195.99 420 1196.98 420 1198 C419.01 1198 418.02 1198 417 1198 C417 1198.66 417 1199.32 417 1200 C414.69 1200 412.38 1200 410 1200 C410 1200.66 410 1201.32 410 1202 C407.27259618 1202.90913461 405.70329801 1203.12508717 402.90135682 1203.12534916 C401.64179247 1203.12910444 401.64179247 1203.12910444 400.35678238 1203.13293558 C398.97015422 1203.12942383 398.97015422 1203.12942383 397.55551338 1203.12584114 C396.07861783 1203.1280213 396.07861783 1203.1280213 394.571886 1203.13024551 C391.24054596 1203.13392309 387.90925116 1203.13041095 384.57791138 1203.12698364 C382.17825162 1203.12813477 379.77859204 1203.12972223 377.37893283 1203.13171089 C372.1450138 1203.13502754 366.91110413 1203.13520804 361.67718506 1203.13266373 C353.89422025 1203.1288905 346.11126418 1203.13081017 338.32829943 1203.13387203 C324.42959409 1203.13914604 310.53089333 1203.13867806 296.63218755 1203.13579312 C284.46816884 1203.13328056 272.30415182 1203.13261946 260.1401329 1203.13381577 C259.33421092 1203.13389215 258.52828894 1203.13396854 257.69794508 1203.13404724 C254.42667188 1203.13435856 251.15539869 1203.13467696 247.8841255 1203.135007 C217.17585162 1203.13806829 186.46758067 1203.13528902 155.75930724 1203.1299101 C128.46274623 1203.12516515 101.16618988 1203.12558811 73.86962891 1203.13037109 C43.22162233 1203.13572334 12.57361835 1203.13785031 -18.07438862 1203.13475883 C-21.34042621 1203.1344381 -24.60646379 1203.13412526 -27.87250137 1203.13381577 C-28.67671834 1203.13373669 -29.4809353 1203.13365761 -30.30952248 1203.13357614 C-42.46602183 1203.13243759 -54.62251931 1203.13377096 -66.7790184 1203.13629532 C-80.59996466 1203.13915095 -94.4209056 1203.13844754 -108.2418512 1203.13301457 C-115.98151797 1203.13007268 -123.72117324 1203.12989467 -131.46083972 1203.13366075 C-137.23103368 1203.13615933 -143.00121565 1203.13346015 -148.77140774 1203.12868617 C-151.11257575 1203.12756418 -153.45374529 1203.12814839 -155.79491232 1203.13056196 C-158.96457427 1203.13358033 -162.13417254 1203.13050635 -165.3038311 1203.12584114 C-166.22356754 1203.12818231 -167.14330397 1203.13052347 -168.09091121 1203.13293558 C-172.1917562 1203.12078175 -176.00091711 1203.0391232 -180 1202 C-180 1201.34 -180 1200.68 -180 1200 C-182.64 1200 -185.28 1200 -188 1200 C-188 1199.34 -188 1198.68 -188 1198 C-189.65 1197.67 -191.3 1197.34 -193 1197 C-193 1196.34 -193 1195.68 -193 1195 C-193.66 1195 -194.32 1195 -195 1195 C-195 1194.34 -195 1193.68 -195 1193 C-195.99 1193 -196.98 1193 -198 1193 C-198 1192.01 -198 1191.02 -198 1190 C-198.66 1190 -199.32 1190 -200 1190 C-200 1189.34 -200 1188.68 -200 1188 C-200.99 1187.67 -201.98 1187.34 -203 1187 C-203 1185.68 -203 1184.36 -203 1183 C-203.66 1183 -204.32 1183 -205 1183 C-205 1180.36 -205 1177.72 -205 1175 C-205.66 1175 -206.32 1175 -207 1175 C-207 1113.29 -207 1051.58 -207 988 C-206.34 988 -205.68 988 -205 988 C-205 986.02 -205 984.04 -205 982 C-204.34 982 -203.68 982 -203 982 C-202.67 980.68 -202.34 979.36 -202 978 C-201.34 978 -200.68 978 -200 978 C-200 977.01 -200 976.02 -200 975 C-198.35 975 -196.7 975 -195 975 C-195 974.34 -195 973.68 -195 973 C-192.11584117 971.55792059 -189.58278472 971.90605113 -186.375 971.9375 C-185.18648438 971.94652344 -183.99796875 971.95554687 -182.7734375 971.96484375 C-181.85820312 971.97644531 -180.94296875 971.98804688 -180 972 C-180 972.99 -180 973.98 -180 975 C-178.35 975 -176.7 975 -175 975 C-175 975.66 -175 976.32 -175 977 C-174.01 977.33 -173.02 977.66 -172 978 C-172 978.66 -172 979.32 -172 980 C-171.34 980 -170.68 980 -170 980 C-170 981.65 -170 983.3 -170 985 C-169.34 985 -168.68 985 -168 985 C-141.61397676 1037.77204647 -167 1102.99905839 -167 1162 C15.82 1162 198.64 1162 387 1162 C387 1125.04 387 1088.08 387 1050 C387.33 1049.34 387.66 1048.68 388 1048 C388.66 1048 389.32 1048 390 1048 C390 1044.7 390 1041.4 390 1038 C390.66 1038 391.32 1038 392 1038 C392.33 1035.36 392.66 1032.72 393 1030 C393.66 1030 394.32 1030 395 1030 C395 1028.35 395 1026.7 395 1025 C395.66 1025 396.32 1025 397 1025 C397.33 1023.35 397.66 1021.7 398 1020 C398.66 1020 399.32 1020 400 1020 C400 1019.01 400 1018.02 400 1017 C400.66 1017 401.32 1017 402 1017 C402.33 1015.35 402.66 1013.7 403 1012 C403.66 1012 404.32 1012 405 1012 C405 1011.34 405 1010.68 405 1010 C405.66 1010 406.32 1010 407 1010 C407.33 1008.35 407.66 1006.7 408 1005 C408.66 1005 409.32 1005 410 1005 C410 1004.34 410 1003.68 410 1003 C411.375 1001.375 411.375 1001.375 413 1000 C413.66 1000 414.32 1000 415 1000 C415 999.34 415 998.68 415 998 C416.375 996.375 416.375 996.375 418 995 C418.66 995 419.32 995 420 995 C420 994.34 420 993.68 420 993 C421.65 992.67 423.3 992.34 425 992 C425 991.34 425 990.68 425 990 C425.66 990 426.32 990 427 990 C427.33 989.01 427.66 988.02 428 987 C429.32 987 430.64 987 432 987 C432 986.34 432 985.68 432 985 C432.99 985 433.98 985 435 985 C435 984.34 435 983.68 435 983 C436.65 982.67 438.3 982.34 440 982 C440 981.34 440 980.68 440 980 C442.31 980 444.62 980 447 980 C447.33 979.01 447.66 978.02 448 977 C449.65 977 451.3 977 453 977 C453 976.34 453 975.68 453 975 C456.3 975 459.6 975 463 975 C463 974.34 463 973.68 463 973 C499.86683332 963.78329167 538.99853804 972 577 972 C577 701.4 577 430.8 577 152 C548.29 152 519.58 152 490 152 C490 152.99 490 153.98 490 155 C490.66 155 491.32 155 492 155 C493.50252915 158.0050583 493.12992759 161.09256933 493.11352539 164.38720703 C493.11367142 165.14827759 493.11381744 165.90934814 493.1139679 166.69348145 C493.11326993 169.21495389 493.10548294 171.73635292 493.09765625 174.2578125 C493.09579166 176.00373291 493.09436795 177.74965384 493.09336853 179.49557495 C493.08954659 184.09545328 493.07971905 188.69530014 493.06866455 193.29516602 C493.05844349 197.9871376 493.05386942 202.67911425 493.04882812 207.37109375 C493.03809651 216.58074301 493.02102394 225.79036889 493 235 C492.01 235 491.02 235 490 235 C490 237.64 490 240.28 490 243 C489.34 243 488.68 243 488 243 C487.67 244.65 487.34 246.3 487 248 C486.34 248 485.68 248 485 248 C485 249.65 485 251.3 485 253 C484.34 253 483.68 253 483 253 C483 253.66 483 254.32 483 255 C482.01 255 481.02 255 480 255 C480 256.65 480 258.3 480 260 C479.01 260 478.02 260 477 260 C477 260.66 477 261.32 477 262 C476.34 262 475.68 262 475 262 C475 262.99 475 263.98 475 265 C473.35 265 471.7 265 470 265 C470 265.99 470 266.98 470 268 C469.34 268 468.68 268 468 268 C468 268.66 468 269.32 468 270 C466.35 270 464.7 270 463 270 C462.67 270.99 462.34 271.98 462 273 C460.68 273 459.36 273 458 273 C458 273.66 458 274.32 458 275 C455.36 275 452.72 275 450 275 C450 275.99 450 276.98 450 278 C288.3 278 126.6 278 -40 278 C-40 277.01 -40 276.02 -40 275 C-42.64 275 -45.28 275 -48 275 C-48 274.34 -48 273.68 -48 273 C-49.65 272.67 -51.3 272.34 -53 272 C-53 271.34 -53 270.68 -53 270 C-54.65 270 -56.3 270 -58 270 C-58 269.34 -58 268.68 -58 268 C-58.66 268 -59.32 268 -60 268 C-60 267.01 -60 266.02 -60 265 C-61.65 265 -63.3 265 -65 265 C-65 264.01 -65 263.02 -65 262 C-65.66 262 -66.32 262 -67 262 C-67 261.34 -67 260.68 -67 260 C-67.99 260 -68.98 260 -70 260 C-70 258.35 -70 256.7 -70 255 C-70.99 255 -71.98 255 -73 255 C-73 254.34 -73 253.68 -73 253 C-73.66 253 -74.32 253 -75 253 C-75 251.35 -75 249.7 -75 248 C-75.99 247.67 -76.98 247.34 -78 247 C-78 245.68 -78 244.36 -78 243 C-78.66 243 -79.32 243 -80 243 C-80 240.36 -80 237.72 -80 235 C-80.99 235 -81.98 235 -83 235 C-83.02313729 224.86460923 -83.04092219 214.72922471 -83.05181217 204.59381294 C-83.05703795 199.88789057 -83.0641301 195.18198622 -83.07543945 190.47607422 C-83.08627912 185.93736468 -83.09227914 181.3986725 -83.09487724 176.85995102 C-83.09672954 175.12554526 -83.10034643 173.39114049 -83.10573006 171.6567421 C-83.11295478 169.23354259 -83.11399033 166.81041552 -83.11352539 164.38720703 C-83.11712067 163.66503998 -83.12071594 162.94287292 -83.12442017 162.19882202 C-83.11405216 157.22810432 -83.11405216 157.22810432 -82 155 C-81.34 155 -80.68 155 -80 155 C-80 154.01 -80 153.02 -80 152 C-108.71 152 -137.42 152 -167 152 C-166.99777939 161.61490067 -166.99555878 171.22980133 -166.99327087 181.13606262 C-166.99179859 187.6590271 -166.9903309 194.18199157 -166.9888916 200.70495605 C-166.98861111 201.97595569 -166.98861111 201.97595569 -166.98832495 203.27263208 C-166.9759659 259.35816129 -166.96479306 315.44369044 -166.95765686 371.52922058 C-166.9575188 372.61148484 -166.95738075 373.6937491 -166.95723851 374.80880925 C-166.95424591 398.32680201 -166.95147568 421.84479478 -166.94893467 445.36278759 C-166.94768729 456.89526009 -166.94639074 468.42773259 -166.94506836 479.96020508 C-166.9449376 481.10785199 -166.94480684 482.2554989 -166.94467212 483.43792299 C-166.94040738 520.66634411 -166.93289354 557.89476371 -166.92370278 595.12318391 C-166.91427869 633.36598255 -166.90811653 671.60878035 -166.90608501 709.85158013 C-166.90579684 715.24758243 -166.9054712 720.64358473 -166.90512276 726.03958702 C-166.90502162 727.63267297 -166.90502162 727.63267297 -166.90491844 729.25794248 C-166.90373468 746.38487748 -166.8990911 763.51180991 -166.89316797 780.63874386 C-166.88729298 797.83846162 -166.88502894 815.0381768 -166.88649862 832.23789553 C-166.88726178 842.46858819 -166.88520857 852.69927146 -166.87920246 862.92996243 C-166.87546878 869.7532833 -166.87532485 876.57659799 -166.87816819 883.39991927 C-166.87968635 887.29463438 -166.87957905 891.18933167 -166.87511682 895.08404491 C-166.87035901 899.26828201 -166.87323874 903.45247776 -166.87695217 907.63671589 C-166.87432516 908.86097215 -166.87169814 910.0852284 -166.86899152 911.34658334 C-166.87236246 913.00799277 -166.87236246 913.00799277 -166.8758015 914.70296603 C-166.87556753 916.13978155 -166.87556753 916.13978155 -166.87532884 917.60562365 C-167 920 -167 920 -168 923 C-168.66 923 -169.32 923 -170 923 C-170 924.65 -170 926.3 -170 928 C-170.66 928 -171.32 928 -172 928 C-172 928.66 -172 929.32 -172 930 C-172.99 930 -173.98 930 -175 930 C-175 930.99 -175 931.98 -175 933 C-175.99 933 -176.98 933 -178 933 C-178 933.66 -178 934.32 -178 935 C-183.61 935 -189.22 935 -195 935 C-195 934.34 -195 933.68 -195 933 C-196.65 933 -198.3 933 -200 933 C-200 932.01 -200 931.02 -200 930 C-200.99 930 -201.98 930 -203 930 C-203 929.01 -203 928.02 -203 927 C-203.66 927 -204.32 927 -205 927 C-205 924.69 -205 922.38 -205 920 C-205.66 920 -206.32 920 -207 920 C-207 662.6 -207 405.2 -207 140 C-206.34 140 -205.68 140 -205 140 C-205 137.36 -205 134.72 -205 132 C-204.34 132 -203.68 132 -203 132 C-202.67 130.35 -202.34 128.7 -202 127 C-201.34 127 -200.68 127 -200 127 C-200 125.68 -200 124.36 -200 123 C-198.75 121.25 -198.75 121.25 -197 120 C-195.68 120 -194.36 120 -193 120 C-193 119.01 -193 118.02 -193 117 C-192.01 117 -191.02 117 -190 117 C-190 116.34 -190 115.68 -190 115 C-187.69 115 -185.38 115 -183 115 C-182.505 113.515 -182.505 113.515 -182 112 C-136.79 112 -91.58 112 -45 112 C-45 100.78 -45 89.56 -45 78 C-96.81 78 -148.62 78 -202 78 C-202 78.66 -202 79.32 -202 80 C-204.64 80 -207.28 80 -210 80 C-210 80.99 -210 81.98 -210 83 C-211.65 83 -213.3 83 -215 83 C-215 83.66 -215 84.32 -215 85 C-215.99 85 -216.98 85 -218 85 C-218 85.66 -218 86.32 -218 87 C-219.98 87.495 -219.98 87.495 -222 88 C-222 88.66 -222 89.32 -222 90 C-222.99 90 -223.98 90 -225 90 C-225 90.99 -225 91.98 -225 93 C-225.66 93 -226.32 93 -227 93 C-227 93.66 -227 94.32 -227 95 C-227.99 95 -228.98 95 -230 95 C-230 95.99 -230 96.98 -230 98 C-230.66 98 -231.32 98 -232 98 C-232.33 99.65 -232.66 101.3 -233 103 C-233.66 103 -234.32 103 -235 103 C-235 104.32 -235 105.64 -235 107 C-235.66 107 -236.32 107 -237 107 C-237.33 108.98 -237.66 110.96 -238 113 C-238.66 113 -239.32 113 -240 113 C-240 115.31 -240 117.62 -240 120 C-240.66 120 -241.32 120 -242 120 C-242 475.41 -242 830.82 -242 1197 C-241.34 1197 -240.68 1197 -240 1197 C-240 1199.64 -240 1202.28 -240 1205 C-239.34 1205 -238.68 1205 -238 1205 C-237.67 1207.31 -237.34 1209.62 -237 1212 C-236.34 1212 -235.68 1212 -235 1212 C-235 1212.99 -235 1213.98 -235 1215 C-234.34 1215 -233.68 1215 -233 1215 C-232.67 1216.65 -232.34 1218.3 -232 1220 C-231.34 1220 -230.68 1220 -230 1220 C-230 1220.66 -230 1221.32 -230 1222 C-229.01 1222.33 -228.02 1222.66 -227 1223 C-227 1223.66 -227 1224.32 -227 1225 C-226.34 1225 -225.68 1225 -225 1225 C-225 1225.66 -225 1226.32 -225 1227 C-224.01 1227.33 -223.02 1227.66 -222 1228 C-222 1228.66 -222 1229.32 -222 1230 C-221.34 1230 -220.68 1230 -220 1230 C-220 1230.66 -220 1231.32 -220 1232 C-218.35 1232.33 -216.7 1232.66 -215 1233 C-215 1233.66 -215 1234.32 -215 1235 C-213.35 1235 -211.7 1235 -210 1235 C-210 1235.66 -210 1236.32 -210 1237 C-208.35 1237.33 -206.7 1237.66 -205 1238 C-205 1238.66 -205 1239.32 -205 1240 C-201.7 1240 -198.4 1240 -195 1240 C-195 1240.66 -195 1241.32 -195 1242 C69 1242 333 1242 605 1242 C605 1241.34 605 1240.68 605 1240 C608.3 1240 611.6 1240 615 1240 C615 1239.34 615 1238.68 615 1238 C616.65 1237.67 618.3 1237.34 620 1237 C620 1236.34 620 1235.68 620 1235 C621.65 1235 623.3 1235 625 1235 C625 1234.34 625 1233.68 625 1233 C626.65 1232.67 628.3 1232.34 630 1232 C630 1231.34 630 1230.68 630 1230 C630.66 1230 631.32 1230 632 1230 C632.33 1229.01 632.66 1228.02 633 1227 C633.66 1227 634.32 1227 635 1227 C635 1226.34 635 1225.68 635 1225 C635.66 1225 636.32 1225 637 1225 C637.33 1224.01 637.66 1223.02 638 1222 C638.66 1222 639.32 1222 640 1222 C640 1221.34 640 1220.68 640 1220 C640.66 1220 641.32 1220 642 1220 C642.33 1218.35 642.66 1216.7 643 1215 C643.66 1215 644.32 1215 645 1215 C645 1214.01 645 1213.02 645 1212 C645.66 1212 646.32 1212 647 1212 C647.33 1209.69 647.66 1207.38 648 1205 C648.66 1205 649.32 1205 650 1205 C650 1202.36 650 1199.72 650 1197 C650.66 1197 651.32 1197 652 1197 C652 841.59 652 486.18 652 120 C651.34 120 650.68 120 650 120 C650 117.69 650 115.38 650 113 C649.34 113 648.68 113 648 113 C647.67 111.02 647.34 109.04 647 107 C646.34 107 645.68 107 645 107 C645 105.68 645 104.36 645 103 C644.01 102.67 643.02 102.34 642 102 C642 100.68 642 99.36 642 98 C641.34 98 640.68 98 640 98 C640 97.01 640 96.02 640 95 C639.01 95 638.02 95 637 95 C637 94.34 637 93.68 637 93 C636.34 93 635.68 93 635 93 C635 92.01 635 91.02 635 90 C634.01 90 633.02 90 632 90 C632 89.34 632 88.68 632 88 C630.68 87.67 629.36 87.34 628 87 C628 86.34 628 85.68 628 85 C627.01 85 626.02 85 625 85 C625 84.34 625 83.68 625 83 C623.35 83 621.7 83 620 83 C620 82.01 620 81.02 620 80 C617.36 80 614.72 80 612 80 C612 79.34 612 78.68 612 78 C610.0931971 78.00333092 610.0931971 78.00333092 608.14787292 78.00672913 C596.18458215 78.02697588 584.22129484 78.04197956 572.25799084 78.05181217 C566.10712662 78.05703708 559.9562762 78.06412767 553.80541992 78.07543945 C547.87267737 78.08628218 541.93994812 78.0922798 536.00719643 78.09487724 C533.74052025 78.09672898 531.47384483 78.10034481 529.2071743 78.10573006 C526.03938584 78.11295882 522.87165276 78.11399016 519.70385742 78.11352539 C518.76086792 78.11712067 517.81787842 78.12071594 516.84631348 78.12442017 C515.55276192 78.12235817 515.55276192 78.12235817 514.233078 78.12025452 C513.48366031 78.12117631 512.73424261 78.1220981 511.96211529 78.12304783 C510 78 510 78 507 77 C507 76.34 507 75.68 507 75 C504.69 75 502.38 75 500 75 C500 74.34 500 73.68 500 73 C499.01 72.67 498.02 72.34 497 72 C497 71.34 497 70.68 497 70 C496.34 70 495.68 70 495 70 C495 68.35 495 66.7 495 65 C494.01 65 493.02 65 492 65 C492 60.05 492 55.1 492 50 C492.99 50 493.98 50 495 50 C495 48.35 495 46.7 495 45 C495.66 45 496.32 45 497 45 C497.33 44.01 497.66 43.02 498 42 C498.66 42 499.32 42 500 42 C500 41.34 500 40.68 500 40 C501.65 40 503.3 40 505 40 C505 39.34 505 38.68 505 38 C507.26902751 36.86548625 508.49826472 36.87431405 511.01670837 36.87301636 C511.85653763 36.87019653 512.69636688 36.86737671 513.56164551 36.86447144 C514.94640076 36.86750778 514.94640076 36.86750778 516.35913086 36.87060547 C517.32996109 36.86885315 518.30079132 36.86710083 519.30104065 36.86529541 C522.52232633 36.86088065 525.74355747 36.86381381 528.96484375 36.8671875 C531.19682323 36.8665143 533.42880263 36.86554414 535.66078186 36.86428833 C540.34409278 36.86281182 545.02738465 36.86496422 549.71069336 36.86962891 C555.72117347 36.87532286 561.7316089 36.87204899 567.74208736 36.86605644 C572.35307656 36.86244677 576.96405512 36.86359135 581.57504463 36.86618423 C583.79147916 36.86685255 586.00791465 36.86602841 588.22434807 36.86370468 C591.320083 36.86117189 594.41574512 36.86502784 597.51147461 36.87060547 C598.43262054 36.86858124 599.35376648 36.86655701 600.30282593 36.86447144 C601.14547501 36.86729126 601.98812408 36.87011108 602.85630798 36.87301636 C603.58837935 36.87339338 604.32045073 36.87377041 605.07470608 36.87415886 C607 37 607 37 610 38 C610 38.66 610 39.32 610 40 C613.96 40 617.92 40 622 40 C622 40.66 622 41.32 622 42 C622.94875 41.979375 623.8975 41.95875 624.875 41.9375 C628 42 628 42 630 43 C630 43.66 630 44.32 630 45 C631.65 45 633.3 45 635 45 C635 45.66 635 46.32 635 47 C636.65 47 638.3 47 640 47 C640 47.99 640 48.98 640 50 C641.65 50 643.3 50 645 50 C645 50.66 645 51.32 645 52 C647.475 52.495 647.475 52.495 650 53 C650 53.66 650 54.32 650 55 C650.99 55 651.98 55 653 55 C653 55.66 653 56.32 653 57 C653.66 57 654.32 57 655 57 C655 57.99 655 58.98 655 60 C656.65 60 658.3 60 660 60 C660 60.99 660 61.98 660 63 C660.66 63 661.32 63 662 63 C662 63.66 662 64.32 662 65 C662.99 65 663.98 65 665 65 C665 65.99 665 66.98 665 68 C665.66 68 666.32 68 667 68 C667 68.66 667 69.32 667 70 C667.99 70 668.98 70 670 70 C670 71.65 670 73.3 670 75 C670.99 75 671.98 75 673 75 C673 75.66 673 76.32 673 77 C673.66 77 674.32 77 675 77 C675 77.99 675 78.98 675 80 C675.66 80 676.32 80 677 80 C677.33 81.65 677.66 83.3 678 85 C678.66 85 679.32 85 680 85 C680 86.65 680 88.3 680 90 C680.99 90 681.98 90 683 90 C683 91.65 683 93.3 683 95 C683.66 95 684.32 95 685 95 C685 97.31 685 99.62 685 102 C685.99 102.33 686.98 102.66 688 103 C688 105.31 688 107.62 688 110 C688.66 110 689.32 110 690 110 C690 116.6 690 123.2 690 130 C690.66 130 691.32 130 692 130 C692 479.14 692 828.28 692 1188 C691.34 1188 690.68 1188 690 1188 C690 1194.6 690 1201.2 690 1208 C689.34 1208 688.68 1208 688 1208 C688.0309375 1209.670625 688.0309375 1209.670625 688.0625 1211.375 C688 1215 688 1215 687 1217 C686.34 1217 685.68 1217 685 1217 C685 1218.98 685 1220.96 685 1223 C684.34 1223 683.68 1223 683 1223 C683 1224.65 683 1226.3 683 1228 C682.01 1228 681.02 1228 680 1228 C680 1229.65 680 1231.3 680 1233 C679.34 1233 678.68 1233 678 1233 C677.67 1234.65 677.34 1236.3 677 1238 C676.34 1238 675.68 1238 675 1238 C675 1238.66 675 1239.32 675 1240 C674.34 1240 673.68 1240 673 1240 C672.67 1241.65 672.34 1243.3 672 1245 C671.34 1245 670.68 1245 670 1245 C670 1245.99 670 1246.98 670 1248 C669.34 1248 668.68 1248 668 1248 C668 1248.66 668 1249.32 668 1250 C667.01 1250 666.02 1250 665 1250 C665 1250.99 665 1251.98 665 1253 C664.34 1253 663.68 1253 663 1253 C663 1253.66 663 1254.32 663 1255 C662.01 1255 661.02 1255 660 1255 C660 1255.99 660 1256.98 660 1258 C659.34 1258 658.68 1258 658 1258 C658 1258.66 658 1259.32 658 1260 C657.01 1260 656.02 1260 655 1260 C655 1260.66 655 1261.32 655 1262 C653.35 1262.33 651.7 1262.66 650 1263 C650 1263.66 650 1264.32 650 1265 C649.01 1265 648.02 1265 647 1265 C647 1265.66 647 1266.32 647 1267 C645.68 1267.33 644.36 1267.66 643 1268 C643 1268.66 643 1269.32 643 1270 C641.35 1270 639.7 1270 638 1270 C637.67 1270.99 637.34 1271.98 637 1273 C635.68 1273 634.36 1273 633 1273 C633 1273.66 633 1274.32 633 1275 C630.36 1275 627.72 1275 625 1275 C625 1275.99 625 1276.98 625 1278 C622.36 1278 619.72 1278 617 1278 C617 1278.66 617 1279.32 617 1280 C345.08 1280 73.16 1280 -207 1280 C-207 1279.34 -207 1278.68 -207 1278 C-209.64 1278 -212.28 1278 -215 1278 C-215 1277.01 -215 1276.02 -215 1275 C-217.64 1275 -220.28 1275 -223 1275 C-223 1274.34 -223 1273.68 -223 1273 C-224.65 1272.67 -226.3 1272.34 -228 1272 C-228 1271.34 -228 1270.68 -228 1270 C-229.65 1270 -231.3 1270 -233 1270 C-233 1269.34 -233 1268.68 -233 1268 C-234.32 1267.67 -235.64 1267.34 -237 1267 C-237 1266.34 -237 1265.68 -237 1265 C-237.99 1265 -238.98 1265 -240 1265 C-240 1264.34 -240 1263.68 -240 1263 C-241.65 1262.67 -243.3 1262.34 -245 1262 C-245 1261.34 -245 1260.68 -245 1260 C-245.99 1260 -246.98 1260 -248 1260 C-248 1259.34 -248 1258.68 -248 1258 C-248.66 1258 -249.32 1258 -250 1258 C-250 1257.01 -250 1256.02 -250 1255 C-250.99 1255 -251.98 1255 -253 1255 C-253 1254.34 -253 1253.68 -253 1253 C-253.66 1253 -254.32 1253 -255 1253 C-255 1252.01 -255 1251.02 -255 1250 C-255.99 1250 -256.98 1250 -258 1250 C-258 1249.34 -258 1248.68 -258 1248 C-258.66 1248 -259.32 1248 -260 1248 C-260 1247.01 -260 1246.02 -260 1245 C-260.66 1245 -261.32 1245 -262 1245 C-262.33 1243.35 -262.66 1241.7 -263 1240 C-263.66 1240 -264.32 1240 -265 1240 C-265 1239.34 -265 1238.68 -265 1238 C-265.99 1237.67 -266.98 1237.34 -268 1237 C-268 1235.68 -268 1234.36 -268 1233 C-268.66 1233 -269.32 1233 -270 1233 C-270 1231.35 -270 1229.7 -270 1228 C-270.99 1228 -271.98 1228 -273 1228 C-273 1226.35 -273 1224.7 -273 1223 C-273.66 1223 -274.32 1223 -275 1223 C-275 1221.02 -275 1219.04 -275 1217 C-275.66 1217 -276.32 1217 -277 1217 C-278.4783226 1214.04335481 -278.06032783 1211.25770263 -278 1208 C-278.66 1208 -279.32 1208 -280 1208 C-280 1202.06 -280 1196.12 -280 1190 C-280.66 1190 -281.32 1190 -282 1190 C-282 840.2 -282 490.4 -282 130 C-281.34 130 -280.68 130 -280 130 C-280 123.4 -280 116.8 -280 110 C-279.34 110 -278.68 110 -278 110 C-278 107.69 -278 105.38 -278 103 C-276.515 102.505 -276.515 102.505 -275 102 C-275 99.69 -275 97.38 -275 95 C-274.34 95 -273.68 95 -273 95 C-273 93.35 -273 91.7 -273 90 C-272.01 90 -271.02 90 -270 90 C-270 88.35 -270 86.7 -270 85 C-269.34 85 -268.68 85 -268 85 C-267.67 83.35 -267.34 81.7 -267 80 C-266.34 80 -265.68 80 -265 80 C-265 79.01 -265 78.02 -265 77 C-264.34 77 -263.68 77 -263 77 C-263 76.34 -263 75.68 -263 75 C-262.01 75 -261.02 75 -260 75 C-260 73.35 -260 71.7 -260 70 C-259.01 70 -258.02 70 -257 70 C-257 69.34 -257 68.68 -257 68 C-256.34 68 -255.68 68 -255 68 C-255 67.01 -255 66.02 -255 65 C-254.01 65 -253.02 65 -252 65 C-252 64.34 -252 63.68 -252 63 C-251.34 63 -250.68 63 -250 63 C-250 62.01 -250 61.02 -250 60 C-248.35 60 -246.7 60 -245 60 C-245 59.01 -245 58.02 -245 57 C-244.34 57 -243.68 57 -243 57 C-243 56.34 -243 55.68 -243 55 C-242.01 55 -241.02 55 -240 55 C-240 54.34 -240 53.68 -240 53 C-237.525 52.505 -237.525 52.505 -235 52 C-235 51.34 -235 50.68 -235 50 C-233.35 50 -231.7 50 -230 50 C-230 49.01 -230 48.02 -230 47 C-228.35 47 -226.7 47 -225 47 C-225 46.34 -225 45.68 -225 45 C-223.35 45 -221.7 45 -220 45 C-220 44.34 -220 43.68 -220 43 C-217.29120665 41.64560332 -214.99066732 41.93498549 -212 42 C-212 41.34 -212 40.68 -212 40 C-208.04 40 -204.08 40 -200 40 C-200 39.34 -200 38.68 -200 38 C-196.66636776 36.88878925 -194.19162295 36.87694204 -190.6789093 36.87974548 C-190.03522831 36.87889106 -189.39154731 36.87803663 -188.72836083 36.87715632 C-186.56798387 36.87550706 -184.40768428 36.88101383 -182.24731445 36.88647461 C-180.70009361 36.88675663 -179.15287262 36.88659846 -177.60565186 36.8860321 C-173.40140645 36.8857447 -169.19718947 36.89163231 -164.99295068 36.89860606 C-160.60070454 36.90484899 -156.20845778 36.90544415 -151.81620789 36.90663147 C-143.49709078 36.90974201 -135.17798678 36.91795167 -126.85887545 36.92798096 C-117.38861301 36.93915069 -107.91834995 36.94465472 -98.44808257 36.94967639 C-78.96538094 36.9601345 -59.48269152 36.97772859 -40 37 C-40 35.35 -40 33.7 -40 32 C-39.34 32 -38.68 32 -38 32 C-37.67 30.68 -37.34 29.36 -37 28 C-36.34 28 -35.68 28 -35 28 C-35 27.01 -35 26.02 -35 25 C-34.34 25 -33.68 25 -33 25 C-33 24.01 -33 23.02 -33 22 C-32.01 22 -31.02 22 -30 22 C-30 21.34 -30 20.68 -30 20 C-29.34 20 -28.68 20 -28 20 C-27.67 18.35 -27.34 16.7 -27 15 C-25.68 15 -24.36 15 -23 15 C-23 14.01 -23 13.02 -23 12 C-22.01 12 -21.02 12 -20 12 C-20 11.34 -20 10.68 -20 10 C-19.01 10 -18.02 10 -17 10 C-17 9.34 -17 8.68 -17 8 C-15.68 7.67 -14.36 7.34 -13 7 C-13 6.34 -13 5.68 -13 5 C-11.02 5 -9.04 5 -7 5 C-7 4.34 -7 3.68 -7 3 C-3.535 2.505 -3.535 2.505 0 2 C0 1.34 0 0.68 0 0 Z M12 38 C12 38.66 12 39.32 12 40 C9.69 40 7.38 40 5 40 C5 40.99 5 41.98 5 43 C3.35 43 1.7 43 0 43 C0 43.66 0 44.32 0 45 C-0.66 45 -1.32 45 -2 45 C-2.33 46.65 -2.66 48.3 -3 50 C-3.66 50 -4.32 50 -5 50 C-5 51.65 -5 53.3 -5 55 C-5.66 55 -6.32 55 -7 55 C-7 81.4 -7 107.8 -7 135 C-6.34 135 -5.68 135 -5 135 C-5 137.31 -5 139.62 -5 142 C-4.01 142 -3.02 142 -2 142 C-2 142.99 -2 143.98 -2 145 C-1.34 145 -0.68 145 0 145 C0 145.66 0 146.32 0 147 C1.14397385 148.72840348 1.14397385 148.72840348 3 150 C5.62570704 150.25069913 5.62570704 150.25069913 8 150 C8 150.66 8 151.32 8 152 C138.02 152 268.04 152 402 152 C402 151.34 402 150.68 402 150 C403.1446875 150.0928125 403.1446875 150.0928125 404.3125 150.1875 C407.0205342 150.24498309 407.0205342 150.24498309 408.8125 148.625 C410.1966722 147.06631217 410.1966722 147.06631217 410 145 C410.66 145 411.32 145 412 145 C412 144.01 412 143.02 412 142 C412.99 142 413.98 142 415 142 C415 139.69 415 137.38 415 135 C415.66 135 416.32 135 417 135 C417 108.6 417 82.2 417 55 C416.34 55 415.68 55 415 55 C415 53.35 415 51.7 415 50 C414.01 50 413.02 50 412 50 C412 48.35 412 46.7 412 45 C411.34 45 410.68 45 410 45 C410 44.34 410 43.68 410 43 C408.35 43 406.7 43 405 43 C405 42.01 405 41.02 405 40 C402.69 40 400.38 40 398 40 C398 39.34 398 38.68 398 38 C270.62 38 143.24 38 12 38 Z M-40 158 C-40 158.66 -40 159.32 -40 160 C-40.66 160 -41.32 160 -42 160 C-42.33 161.65 -42.66 163.3 -43 165 C-43.66 165 -44.32 165 -45 165 C-45 184.8 -45 204.6 -45 225 C-44.34 225 -43.68 225 -43 225 C-42.67 226.65 -42.34 228.3 -42 230 C-41.34 230 -40.68 230 -40 230 C-40 231.65 -40 233.3 -40 235 C-38.35 235 -36.7 235 -35 235 C-35 235.66 -35 236.32 -35 237 C-33.35 237.33 -31.7 237.66 -30 238 C-30 238.66 -30 239.32 -30 240 C125.1 240 280.2 240 440 240 C440 239.34 440 238.68 440 238 C441.65 237.67 443.3 237.34 445 237 C445 236.34 445 235.68 445 235 C446.65 235 448.3 235 450 235 C450 233.35 450 231.7 450 230 C450.66 230 451.32 230 452 230 C452.33 228.35 452.66 226.7 453 225 C453.66 225 454.32 225 455 225 C455 205.2 455 185.4 455 165 C454.34 165 453.68 165 453 165 C452.67 163.35 452.34 161.7 452 160 C451.34 160 450.68 160 450 160 C450 159.34 450 158.68 450 158 C449.34 158 448.68 158 448 158 C447.87625 158.639375 447.7525 159.27875 447.625 159.9375 C447.315625 160.9584375 447.315625 160.9584375 447 162 C446.34 162.33 445.68 162.66 445 163 C445 164.32 445 165.64 445 167 C444.34 167 443.68 167 443 167 C443 167.99 443 168.98 443 170 C442.01 170 441.02 170 440 170 C440 170.99 440 171.98 440 173 C439.34 173 438.68 173 438 173 C438 173.66 438 174.32 438 175 C437.01 175 436.02 175 435 175 C435 175.99 435 176.98 435 178 C434.01 178 433.02 178 432 178 C432 178.66 432 179.32 432 180 C430.68 180 429.36 180 428 180 C428 180.99 428 181.98 428 183 C427.01 183 426.02 183 425 183 C425 183.66 425 184.32 425 185 C423.35 185 421.7 185 420 185 C420 185.66 420 186.32 420 187 C417.69 187.33 415.38 187.66 413 188 C413 188.66 413 189.32 413 190 C409.37 190 405.74 190 402 190 C402 190.66 402 191.32 402 192 C271.98 192 141.96 192 8 192 C8 191.34 8 190.68 8 190 C4.37 190 0.74 190 -3 190 C-3 189.34 -3 188.68 -3 188 C-5.31 187.67 -7.62 187.34 -10 187 C-10 186.34 -10 185.68 -10 185 C-11.65 185 -13.3 185 -15 185 C-15 184.34 -15 183.68 -15 183 C-15.99 183 -16.98 183 -18 183 C-18 182.01 -18 181.02 -18 180 C-19.32 180 -20.64 180 -22 180 C-22 179.34 -22 178.68 -22 178 C-22.99 178 -23.98 178 -25 178 C-25 177.01 -25 176.02 -25 175 C-25.99 175 -26.98 175 -28 175 C-28 174.34 -28 173.68 -28 173 C-28.66 173 -29.32 173 -30 173 C-30 172.01 -30 171.02 -30 170 C-30.99 170 -31.98 170 -33 170 C-33 169.01 -33 168.02 -33 167 C-33.66 167 -34.32 167 -35 167 C-35 165.68 -35 164.36 -35 163 C-35.66 162.67 -36.32 162.34 -37 162 C-37.625 159.9375 -37.625 159.9375 -38 158 C-38.66 158 -39.32 158 -40 158 Z M477 1010 C477 1010.66 477 1011.32 477 1012 C471.06 1012.495 471.06 1012.495 465 1013 C465 1013.66 465 1014.32 465 1015 C462.69 1015 460.38 1015 458 1015 C457.67 1015.66 457.34 1016.32 457 1017 C454.9375 1017.625 454.9375 1017.625 453 1018 C453 1018.66 453 1019.32 453 1020 C452.01 1020 451.02 1020 450 1020 C450 1020.66 450 1021.32 450 1022 C448.35 1022.33 446.7 1022.66 445 1023 C445 1023.66 445 1024.32 445 1025 C444.34 1025 443.68 1025 443 1025 C443 1025.99 443 1026.98 443 1028 C442.01 1028 441.02 1028 440 1028 C440 1028.66 440 1029.32 440 1030 C439.34 1030 438.68 1030 438 1030 C437.67 1031.65 437.34 1033.3 437 1035 C436.34 1035 435.68 1035 435 1035 C435 1035.99 435 1036.98 435 1038 C434.34 1038 433.68 1038 433 1038 C432.87625 1038.639375 432.7525 1039.27875 432.625 1039.9375 C432.41875 1040.618125 432.2125 1041.29875 432 1042 C431.01 1042.495 431.01 1042.495 430 1043 C430 1044.65 430 1046.3 430 1048 C429.34 1048 428.68 1048 428 1048 C427.67 1051.96 427.34 1055.92 427 1060 C426.34 1060 425.68 1060 425 1060 C425 1084.75 425 1109.5 425 1135 C427.10031679 1135.21531408 427.10031679 1135.21531408 428.625 1133.625 C430.21531408 1132.10031679 430.21531408 1132.10031679 430 1130 C430.66 1130 431.32 1130 432 1130 C433.66666667 1128.66666667 433.66666667 1128.66666667 435 1127 C435 1126.34 435 1125.68 435 1125 C435.66 1125 436.32 1125 437 1125 C438.66666667 1123.66666667 438.66666667 1123.66666667 440 1122 C440 1121.34 440 1120.68 440 1120 C440.66 1120 441.32 1120 442 1120 C443.66666667 1118.66666667 443.66666667 1118.66666667 445 1117 C445 1116.34 445 1115.68 445 1115 C445.66 1115 446.32 1115 447 1115 C448.66666667 1113.66666667 448.66666667 1113.66666667 450 1112 C450 1111.34 450 1110.68 450 1110 C450.66 1110 451.32 1110 452 1110 C453.66666667 1108.66666667 453.66666667 1108.66666667 455 1107 C455 1106.34 455 1105.68 455 1105 C455.66 1105 456.32 1105 457 1105 C458.66666667 1103.66666667 458.66666667 1103.66666667 460 1102 C460 1101.34 460 1100.68 460 1100 C460.66 1100 461.32 1100 462 1100 C463.66666667 1098.66666667 463.66666667 1098.66666667 465 1097 C465 1096.34 465 1095.68 465 1095 C465.66 1095 466.32 1095 467 1095 C468.66666667 1093.66666667 468.66666667 1093.66666667 470 1092 C470 1091.34 470 1090.68 470 1090 C470.66 1090 471.32 1090 472 1090 C473.66666667 1088.66666667 473.66666667 1088.66666667 475 1087 C475 1086.34 475 1085.68 475 1085 C475.66 1085 476.32 1085 477 1085 C478.66666667 1083.66666667 478.66666667 1083.66666667 480 1082 C480 1081.34 480 1080.68 480 1080 C480.66 1080 481.32 1080 482 1080 C483.66666667 1078.66666667 483.66666667 1078.66666667 485 1077 C485 1076.34 485 1075.68 485 1075 C485.66 1075 486.32 1075 487 1075 C488.66666667 1073.66666667 488.66666667 1073.66666667 490 1072 C490 1071.34 490 1070.68 490 1070 C490.66 1070 491.32 1070 492 1070 C493.66666667 1068.66666667 493.66666667 1068.66666667 495 1067 C495 1066.34 495 1065.68 495 1065 C495.66 1065 496.32 1065 497 1065 C498.66666667 1063.66666667 498.66666667 1063.66666667 500 1062 C500 1061.34 500 1060.68 500 1060 C500.66 1060 501.32 1060 502 1060 C503.66666667 1058.66666667 503.66666667 1058.66666667 505 1057 C505 1056.34 505 1055.68 505 1055 C505.66 1055 506.32 1055 507 1055 C508.66666667 1053.66666667 508.66666667 1053.66666667 510 1052 C510 1051.34 510 1050.68 510 1050 C510.66 1050 511.32 1050 512 1050 C513.66666667 1048.66666667 513.66666667 1048.66666667 515 1047 C515 1046.34 515 1045.68 515 1045 C515.66 1045 516.32 1045 517 1045 C518.66666667 1043.66666667 518.66666667 1043.66666667 520 1042 C520 1041.34 520 1040.68 520 1040 C520.66 1040 521.32 1040 522 1040 C523.66666667 1038.66666667 523.66666667 1038.66666667 525 1037 C525 1036.34 525 1035.68 525 1035 C525.66 1035 526.32 1035 527 1035 C528.66666667 1033.66666667 528.66666667 1033.66666667 530 1032 C530 1031.34 530 1030.68 530 1030 C530.66 1030 531.32 1030 532 1030 C533.66666667 1028.66666667 533.66666667 1028.66666667 535 1027 C535 1026.34 535 1025.68 535 1025 C535.66 1025 536.32 1025 537 1025 C538.66666667 1023.66666667 538.66666667 1023.66666667 540 1022 C540 1021.34 540 1020.68 540 1020 C540.66 1020 541.32 1020 542 1020 C543.66666667 1018.66666667 543.66666667 1018.66666667 545 1017 C545 1016.34 545 1015.68 545 1015 C545.66 1015 546.32 1015 547 1015 C547 1014.01 547 1013.02 547 1012 C547.99 1012 548.98 1012 550 1012 C550 1011.34 550 1010.68 550 1010 C525.91 1010 501.82 1010 477 1010 Z " fill="#000000" transform="translate(435,0)"/>
<path d="M0 0 C23.1 0 46.2 0 70 0 C70 0.66 70 1.32 70 2 C72.31 2.33 74.62 2.66 77 3 C77 3.66 77 4.32 77 5 C77.99 5 78.98 5 80 5 C80 5.66 80 6.32 80 7 C80.99 7.33 81.98 7.66 83 8 C83 8.66 83 9.32 83 10 C83.66 10 84.32 10 85 10 C85 12.31 85 14.62 85 17 C85.66 17 86.32 17 87 17 C87 18.98 87 20.96 87 23 C86.34 23 85.68 23 85 23 C85 25.31 85 27.62 85 30 C84.34 30 83.68 30 83 30 C83 30.99 83 31.98 83 33 C82.01 33 81.02 33 80 33 C80 33.66 80 34.32 80 35 C79.34 35 78.68 35 78 35 C77.67 35.99 77.34 36.98 77 38 C75.68 38 74.36 38 73 38 C73 38.66 73 39.32 73 40 C49.9 40 26.8 40 3 40 C3 86.2 3 132.4 3 180 C49.86 180 96.72 180 145 180 C145 160.86 145 141.72 145 122 C145.66 122 146.32 122 147 122 C147.33 120.68 147.66 119.36 148 118 C148.66 118 149.32 118 150 118 C150 117.01 150 116.02 150 115 C151.65 115 153.3 115 155 115 C155 114.01 155 113.02 155 112 C157.64 112 160.28 112 163 112 C163 111.34 163 110.68 163 110 C163.66 110 164.32 110 165 110 C165 110.66 165 111.32 165 112 C167.31 112 169.62 112 172 112 C172.33 112.99 172.66 113.98 173 115 C174.32 115 175.64 115 177 115 C178.75 116.25 178.75 116.25 180 118 C180 119.32 180 120.64 180 122 C180.99 122.33 181.98 122.66 183 123 C183 145.11 183 167.22 183 190 C182.01 190 181.02 190 180 190 C180 192.31 180 194.62 180 197 C179.34 197 178.68 197 178 197 C178 197.99 178 198.98 178 200 C177.01 200 176.02 200 175 200 C175 201.65 175 203.3 175 205 C174.34 205 173.68 205 173 205 C172.67 205.99 172.34 206.98 172 208 C171.34 208 170.68 208 170 208 C170 208.66 170 209.32 170 210 C169.01 210 168.02 210 167 210 C167 210.66 167 211.32 167 212 C165.68 212.33 164.36 212.66 163 213 C163 213.66 163 214.32 163 215 C161.35 215 159.7 215 158 215 C157.67 215.99 157.34 216.98 157 218 C155.35 218 153.7 218 152 218 C152 218.66 152 219.32 152 220 C100.19 220 48.38 220 -5 220 C-5 219.34 -5 218.68 -5 218 C-7.31 217.67 -9.62 217.34 -12 217 C-12 216.34 -12 215.68 -12 215 C-12.99 215 -13.98 215 -15 215 C-15 214.34 -15 213.68 -15 213 C-16.65 213 -18.3 213 -20 213 C-20 212.01 -20 211.02 -20 210 C-20.99 210 -21.98 210 -23 210 C-23 209.34 -23 208.68 -23 208 C-23.66 208 -24.32 208 -25 208 C-25 207.01 -25 206.02 -25 205 C-25.99 205 -26.98 205 -28 205 C-28 204.01 -28 203.02 -28 202 C-28.66 202 -29.32 202 -30 202 C-30 200.68 -30 199.36 -30 198 C-30.99 197.67 -31.98 197.34 -33 197 C-33 195.35 -33 193.7 -33 192 C-33.66 192 -34.32 192 -35 192 C-35 138.54 -35 85.08 -35 30 C-34.34 30 -33.68 30 -33 30 C-32.67 27.69 -32.34 25.38 -32 23 C-31.34 23 -30.68 23 -30 23 C-30 22.01 -30 21.02 -30 20 C-29.34 20 -28.68 20 -28 20 C-27.67 18.35 -27.34 16.7 -27 15 C-26.34 15 -25.68 15 -25 15 C-25 14.34 -25 13.68 -25 13 C-23.75 11.375 -23.75 11.375 -22 10 C-20.68 10 -19.36 10 -18 10 C-18 9.01 -18 8.02 -18 7 C-17.01 7 -16.02 7 -15 7 C-15 6.34 -15 5.68 -15 5 C-13.35 5 -11.7 5 -10 5 C-10 4.34 -10 3.68 -10 3 C-6.78548731 1.39274365 -3.56387464 1.94251815 0 2 C0 1.34 0 0.68 0 0 Z " fill="#000000" transform="translate(390,610)"/>
<path d="M0 0 C23.76 0 47.52 0 72 0 C72 0.66 72 1.32 72 2 C73.65 2 75.3 2 77 2 C77.495 3.485 77.495 3.485 78 5 C78.66 5 79.32 5 80 5 C80 5.66 80 6.32 80 7 C80.99 7 81.98 7 83 7 C83 7.99 83 8.98 83 10 C83.66 10 84.32 10 85 10 C85 12.31 85 14.62 85 17 C85.66 17 86.32 17 87 17 C87 18.98 87 20.96 87 23 C86.34 23 85.68 23 85 23 C85 25.31 85 27.62 85 30 C84.34 30 83.68 30 83 30 C83 30.99 83 31.98 83 33 C82.01 33 81.02 33 80 33 C80 33.66 80 34.32 80 35 C79.34 35 78.68 35 78 35 C77.67 35.99 77.34 36.98 77 38 C75.68 38 74.36 38 73 38 C73 38.66 73 39.32 73 40 C49.9 40 26.8 40 3 40 C3 86.2 3 132.4 3 180 C49.86 180 96.72 180 145 180 C145 160.86 145 141.72 145 122 C145.66 122 146.32 122 147 122 C147.33 120.68 147.66 119.36 148 118 C148.66 118 149.32 118 150 118 C150 117.01 150 116.02 150 115 C151.65 115 153.3 115 155 115 C155 114.01 155 113.02 155 112 C156.65 112 158.3 112 160 112 C160 111.34 160 110.68 160 110 C162.31 110 164.62 110 167 110 C167 110.66 167 111.32 167 112 C168.98 112 170.96 112 173 112 C173 112.99 173 113.98 173 115 C174.65 115 176.3 115 178 115 C178 115.99 178 116.98 178 118 C178.66 118 179.32 118 180 118 C180 119.32 180 120.64 180 122 C180.99 122.33 181.98 122.66 183 123 C183 145.11 183 167.22 183 190 C182.01 190 181.02 190 180 190 C180 192.31 180 194.62 180 197 C179.34 197 178.68 197 178 197 C178 197.99 178 198.98 178 200 C177.01 200 176.02 200 175 200 C175 201.65 175 203.3 175 205 C174.34 205 173.68 205 173 205 C172.67 205.99 172.34 206.98 172 208 C171.34 208 170.68 208 170 208 C170 208.66 170 209.32 170 210 C169.01 210 168.02 210 167 210 C167 210.66 167 211.32 167 212 C165.68 212.33 164.36 212.66 163 213 C163 213.66 163 214.32 163 215 C161.35 215 159.7 215 158 215 C157.67 215.99 157.34 216.98 157 218 C154.69 218 152.38 218 150 218 C150 218.66 150 219.32 150 220 C99.51 220 49.02 220 -3 220 C-3 219.34 -3 218.68 -3 218 C-5.31 218 -7.62 218 -10 218 C-10 217.01 -10 216.02 -10 215 C-11.65 215 -13.3 215 -15 215 C-15 214.34 -15 213.68 -15 213 C-16.65 212.67 -18.3 212.34 -20 212 C-20 211.34 -20 210.68 -20 210 C-20.99 210 -21.98 210 -23 210 C-23 209.34 -23 208.68 -23 208 C-23.66 208 -24.32 208 -25 208 C-25 207.01 -25 206.02 -25 205 C-25.99 205 -26.98 205 -28 205 C-28 203.35 -28 201.7 -28 200 C-28.66 200 -29.32 200 -30 200 C-30 199.01 -30 198.02 -30 197 C-30.66 197 -31.32 197 -32 197 C-32.33 194.69 -32.66 192.38 -33 190 C-33.66 190 -34.32 190 -35 190 C-35 137.2 -35 84.4 -35 30 C-34.34 30 -33.68 30 -33 30 C-32.67 27.69 -32.34 25.38 -32 23 C-31.34 23 -30.68 23 -30 23 C-30 22.01 -30 21.02 -30 20 C-29.34 20 -28.68 20 -28 20 C-27.67 18.35 -27.34 16.7 -27 15 C-26.34 15 -25.68 15 -25 15 C-25 14.34 -25 13.68 -25 13 C-23.75 11.375 -23.75 11.375 -22 10 C-20.68 10 -19.36 10 -18 10 C-18 9.01 -18 8.02 -18 7 C-17.01 7 -16.02 7 -15 7 C-15 6.34 -15 5.68 -15 5 C-13.35 5 -11.7 5 -10 5 C-10 4.34 -10 3.68 -10 3 C-6.78548731 1.39274365 -3.56387464 1.94251815 0 2 C0 1.34 0 0.68 0 0 Z " fill="#000000" transform="translate(390,355)"/>
<path d="M0 0 C22.11 0 44.22 0 67 0 C67 0.66 67 1.32 67 2 C69.31 2.33 71.62 2.66 74 3 C74 3.66 74 4.32 74 5 C74.99 5 75.98 5 77 5 C77 5.66 77 6.32 77 7 C77.99 7.33 78.98 7.66 80 8 C80 8.66 80 9.32 80 10 C80.66 10 81.32 10 82 10 C82 12.31 82 14.62 82 17 C82.66 17 83.32 17 84 17 C84 19.64 84 22.28 84 25 C83.34 25 82.68 25 82 25 C82 26.65 82 28.3 82 30 C81.34 30 80.68 30 80 30 C79.67 31.65 79.34 33.3 79 35 C77.68 35 76.36 35 75 35 C75 35.99 75 36.98 75 38 C74.01 38 73.02 38 72 38 C72 38.66 72 39.32 72 40 C48.24 40 24.48 40 0 40 C0 86.2 0 132.4 0 180 C0.66 180 1.32 180 2 180 C2 180.66 2 181.32 2 182 C47.21 182 92.42 182 139 182 C139 181.34 139 180.68 139 180 C139.99 180 140.98 180 142 180 C142 160.86 142 141.72 142 122 C142.66 122 143.32 122 144 122 C144.33 120.68 144.66 119.36 145 118 C145.66 118 146.32 118 147 118 C147 117.01 147 116.02 147 115 C148.65 115 150.3 115 152 115 C152 114.01 152 113.02 152 112 C157.61 112 163.22 112 169 112 C169.33 112.99 169.66 113.98 170 115 C171.32 115 172.64 115 174 115 C175.75 116.25 175.75 116.25 177 118 C177 119.32 177 120.64 177 122 C177.99 122.33 178.98 122.66 180 123 C180 145.11 180 167.22 180 190 C179.01 190 178.02 190 177 190 C177 192.31 177 194.62 177 197 C176.34 197 175.68 197 175 197 C174.67 198.65 174.34 200.3 174 202 C173.34 202 172.68 202 172 202 C172 202.99 172 203.98 172 205 C171.34 205 170.68 205 170 205 C169.67 205.99 169.34 206.98 169 208 C168.34 208 167.68 208 167 208 C167 208.66 167 209.32 167 210 C166.34 210 165.68 210 165 210 C164.67 210.99 164.34 211.98 164 213 C162.68 213 161.36 213 160 213 C160 213.66 160 214.32 160 215 C159.01 215 158.02 215 157 215 C157 215.66 157 216.32 157 217 C154.29120665 218.35439668 151.99066732 218.06501451 149 218 C149 218.66 149 219.32 149 220 C97.19 220 45.38 220 -8 220 C-8 219.34 -8 218.68 -8 218 C-10.31 217.67 -12.62 217.34 -15 217 C-15 216.34 -15 215.68 -15 215 C-16.65 215 -18.3 215 -20 215 C-20 214.34 -20 213.68 -20 213 C-20.99 213 -21.98 213 -23 213 C-23 212.01 -23 211.02 -23 210 C-23.99 210 -24.98 210 -26 210 C-26 209.34 -26 208.68 -26 208 C-26.66 208 -27.32 208 -28 208 C-28 207.01 -28 206.02 -28 205 C-28.99 205 -29.98 205 -31 205 C-31 204.01 -31 203.02 -31 202 C-31.66 202 -32.32 202 -33 202 C-33 200.68 -33 199.36 -33 198 C-33.99 197.67 -34.98 197.34 -36 197 C-36 195.35 -36 193.7 -36 192 C-36.66 192 -37.32 192 -38 192 C-38 138.54 -38 85.08 -38 30 C-37.34 30 -36.68 30 -36 30 C-36 28.35 -36 26.7 -36 25 C-35.01 25 -34.02 25 -33 25 C-33 23.35 -33 21.7 -33 20 C-32.34 20 -31.68 20 -31 20 C-31 19.01 -31 18.02 -31 17 C-30.01 17 -29.02 17 -28 17 C-28 15.68 -28 14.36 -28 13 C-26.35 12.67 -24.7 12.34 -23 12 C-23 11.34 -23 10.68 -23 10 C-22.34 10 -21.68 10 -21 10 C-20.67 9.01 -20.34 8.02 -20 7 C-19.34 7 -18.68 7 -18 7 C-18 6.34 -18 5.68 -18 5 C-15.69 5 -13.38 5 -11 5 C-10.67 4.01 -10.34 3.02 -10 2 C-6.7 2 -3.4 2 0 2 C0 1.34 0 0.68 0 0 Z " fill="#000000" transform="translate(393,865)"/>
<path d="M0 0 C90.75 0 181.5 0 275 0 C275 0.66 275 1.32 275 2 C277.31 2.33 279.62 2.66 282 3 C282 3.66 282 4.32 282 5 C282.99 5 283.98 5 285 5 C285 5.66 285 6.32 285 7 C285.99 7.33 286.98 7.66 288 8 C288 9.32 288 10.64 288 12 C288.66 12 289.32 12 290 12 C290 17.94 290 23.88 290 30 C289.34 30 288.68 30 288 30 C287.67 30.99 287.34 31.98 287 33 C286.34 33 285.68 33 285 33 C285 33.66 285 34.32 285 35 C284.34 35 283.68 35 283 35 C282.67 35.99 282.34 36.98 282 38 C280.68 38 279.36 38 278 38 C278 38.66 278 39.32 278 40 C185.6 40 93.2 40 -2 40 C-2 39.34 -2 38.68 -2 38 C-3.65 37.67 -5.3 37.34 -7 37 C-7 36.34 -7 35.68 -7 35 C-7.99 35 -8.98 35 -10 35 C-10 34.34 -10 33.68 -10 33 C-10.99 32.67 -11.98 32.34 -13 32 C-13 30.68 -13 29.36 -13 28 C-13.66 28 -14.32 28 -15 28 C-15 22.72 -15 17.44 -15 12 C-14.34 12 -13.68 12 -13 12 C-12.67 10.68 -12.34 9.36 -12 8 C-11.34 8 -10.68 8 -10 8 C-10 7.01 -10 6.02 -10 5 C-8.35 5 -6.7 5 -5 5 C-5 4.01 -5 3.02 -5 2 C-3.35 2 -1.7 2 0 2 C0 1.34 0 0.68 0 0 Z " fill="#000000" transform="translate(635,610)"/>
<path d="M0 0 C90.75 0 181.5 0 275 0 C275 0.66 275 1.32 275 2 C277.31 2.33 279.62 2.66 282 3 C282 3.66 282 4.32 282 5 C282.99 5 283.98 5 285 5 C285 5.66 285 6.32 285 7 C285.99 7.33 286.98 7.66 288 8 C288 9.32 288 10.64 288 12 C288.66 12 289.32 12 290 12 C290 17.94 290 23.88 290 30 C289.34 30 288.68 30 288 30 C287.67 30.99 287.34 31.98 287 33 C286.34 33 285.68 33 285 33 C285 33.66 285 34.32 285 35 C284.34 35 283.68 35 283 35 C282.67 35.99 282.34 36.98 282 38 C280.35 38 278.7 38 277 38 C277 38.66 277 39.32 277 40 C184.93 40 92.86 40 -2 40 C-2 39.34 -2 38.68 -2 38 C-3.65 37.67 -5.3 37.34 -7 37 C-7 36.34 -7 35.68 -7 35 C-7.99 35 -8.98 35 -10 35 C-10 34.01 -10 33.02 -10 32 C-10.66 32 -11.32 32 -12 32 C-12.33 30.68 -12.66 29.36 -13 28 C-13.66 28 -14.32 28 -15 28 C-15 22.72 -15 17.44 -15 12 C-14.34 12 -13.68 12 -13 12 C-12.67 10.68 -12.34 9.36 -12 8 C-11.34 8 -10.68 8 -10 8 C-10 7.01 -10 6.02 -10 5 C-9.01 5 -8.02 5 -7 5 C-7 4.34 -7 3.68 -7 3 C-3.535 2.505 -3.535 2.505 0 2 C0 1.34 0 0.68 0 0 Z " fill="#000000" transform="translate(635,430)"/>
<path d="M0 0 C90.75 0 181.5 0 275 0 C275 0.66 275 1.32 275 2 C277.31 2.33 279.62 2.66 282 3 C282 3.66 282 4.32 282 5 C282.99 5 283.98 5 285 5 C285 5.66 285 6.32 285 7 C285.99 7.33 286.98 7.66 288 8 C288 9.32 288 10.64 288 12 C288.66 12 289.32 12 290 12 C290 17.94 290 23.88 290 30 C289.34 30 288.68 30 288 30 C287.67 30.99 287.34 31.98 287 33 C286.34 33 285.68 33 285 33 C285 33.66 285 34.32 285 35 C284.34 35 283.68 35 283 35 C282.67 35.99 282.34 36.98 282 38 C280.35 38 278.7 38 277 38 C277 38.66 277 39.32 277 40 C184.93 40 92.86 40 -2 40 C-2 39.34 -2 38.68 -2 38 C-3.65 37.67 -5.3 37.34 -7 37 C-7 36.34 -7 35.68 -7 35 C-7.99 35 -8.98 35 -10 35 C-10 34.01 -10 33.02 -10 32 C-10.66 32 -11.32 32 -12 32 C-12.33 30.68 -12.66 29.36 -13 28 C-13.66 28 -14.32 28 -15 28 C-15 22.72 -15 17.44 -15 12 C-14.34 12 -13.68 12 -13 12 C-12.67 10.68 -12.34 9.36 -12 8 C-11.34 8 -10.68 8 -10 8 C-10 7.01 -10 6.02 -10 5 C-9.01 5 -8.02 5 -7 5 C-7 4.34 -7 3.68 -7 3 C-3.535 2.505 -3.535 2.505 0 2 C0 1.34 0 0.68 0 0 Z " fill="#000000" transform="translate(635,355)"/>
<path d="M0 0 C89.43 0 178.86 0 271 0 C271 0.66 271 1.32 271 2 C273.31 2 275.62 2 278 2 C278 2.99 278 3.98 278 5 C279.65 5 281.3 5 283 5 C283 5.99 283 6.98 283 8 C283.66 8 284.32 8 285 8 C285.33 9.32 285.66 10.64 286 12 C286.66 12 287.32 12 288 12 C288 17.94 288 23.88 288 30 C287.34 30 286.68 30 286 30 C286 30.99 286 31.98 286 33 C285.01 33 284.02 33 283 33 C283 33.66 283 34.32 283 35 C282.34 35 281.68 35 281 35 C280.67 35.99 280.34 36.98 280 38 C278.68 38 277.36 38 276 38 C276 38.66 276 39.32 276 40 C183.27 40 90.54 40 -5 40 C-5 39.34 -5 38.68 -5 38 C-6.65 37.67 -8.3 37.34 -10 37 C-10 36.34 -10 35.68 -10 35 C-10.66 35 -11.32 35 -12 35 C-12 34.34 -12 33.68 -12 33 C-12.99 32.67 -13.98 32.34 -15 32 C-15 30.68 -15 29.36 -15 28 C-15.66 28 -16.32 28 -17 28 C-17 23.05 -17 18.1 -17 13 C-16.34 13 -15.68 13 -15 13 C-14.67 11.35 -14.34 9.7 -14 8 C-13.34 8 -12.68 8 -12 8 C-12 7.01 -12 6.02 -12 5 C-10.35 5 -8.7 5 -7 5 C-7 4.01 -7 3.02 -7 2 C-4.69 2 -2.38 2 0 2 C0 1.34 0 0.68 0 0 Z " fill="#000000" transform="translate(637,865)"/>
<path d="M0 0 C5.61 0 11.22 0 17 0 C17 0.99 17 1.98 17 3 C18.65 3 20.3 3 22 3 C22 3.99 22 4.98 22 6 C22.66 6 23.32 6 24 6 C24.33 7.32 24.66 8.64 25 10 C25.66 10 26.32 10 27 10 C27 15.94 27 21.88 27 28 C26.34 28 25.68 28 25 28 C25 28.99 25 29.98 25 31 C24.01 31 23.02 31 22 31 C22 31.66 22 32.32 22 33 C21.34 33 20.68 33 20 33 C20 33.99 20 34.98 20 36 C19.01 36 18.02 36 17 36 C17 36.66 17 37.32 17 38 C16.34 38 15.68 38 15 38 C15 38.99 15 39.98 15 41 C14.01 41 13.02 41 12 41 C12 41.66 12 42.32 12 43 C11.34 43 10.68 43 10 43 C10 43.99 10 44.98 10 46 C9.01 46 8.02 46 7 46 C7 46.66 7 47.32 7 48 C6.34 48 5.68 48 5 48 C5 48.99 5 49.98 5 51 C4.01 51 3.02 51 2 51 C2 51.66 2 52.32 2 53 C1.34 53 0.68 53 0 53 C0 53.99 0 54.98 0 56 C-0.99 56 -1.98 56 -3 56 C-3 56.66 -3 57.32 -3 58 C-3.66 58 -4.32 58 -5 58 C-5 58.99 -5 59.98 -5 61 C-5.99 61 -6.98 61 -8 61 C-8 62.32 -8 63.64 -8 65 C-9.375 66.75 -9.375 66.75 -11 68 C-11.66 68 -12.32 68 -13 68 C-13 68.66 -13 69.32 -13 70 C-14.375 71.625 -14.375 71.625 -16 73 C-16.66 73 -17.32 73 -18 73 C-18 73.66 -18 74.32 -18 75 C-19.375 76.625 -19.375 76.625 -21 78 C-21.66 78 -22.32 78 -23 78 C-23 78.66 -23 79.32 -23 80 C-24.375 81.625 -24.375 81.625 -26 83 C-26.66 83 -27.32 83 -28 83 C-28 83.66 -28 84.32 -28 85 C-29.375 86.625 -29.375 86.625 -31 88 C-31.66 88 -32.32 88 -33 88 C-33 88.66 -33 89.32 -33 90 C-34.375 91.625 -34.375 91.625 -36 93 C-36.66 93 -37.32 93 -38 93 C-38 93.66 -38 94.32 -38 95 C-39.375 96.625 -39.375 96.625 -41 98 C-41.66 98 -42.32 98 -43 98 C-43 98.66 -43 99.32 -43 100 C-44.375 101.625 -44.375 101.625 -46 103 C-46.66 103 -47.32 103 -48 103 C-48 103.66 -48 104.32 -48 105 C-49.65 105.33 -51.3 105.66 -53 106 C-53 106.66 -53 107.32 -53 108 C-53.66 108 -54.32 108 -55 108 C-55.495 109.485 -55.495 109.485 -56 111 C-57.32 111 -58.64 111 -60 111 C-60 111.66 -60 112.32 -60 113 C-62.64 113 -65.28 113 -68 113 C-68 113.99 -68 114.98 -68 116 C-70.95839355 116.02689449 -73.91654427 116.04678741 -76.875 116.0625 C-77.71675781 116.07087891 -78.55851562 116.07925781 -79.42578125 116.08789062 C-80.23144531 116.09111328 -81.03710938 116.09433594 -81.8671875 116.09765625 C-82.98262939 116.10551147 -82.98262939 116.10551147 -84.12060547 116.11352539 C-86 116 -86 116 -88 115 C-88 114.34 -88 113.68 -88 113 C-90.64 113 -93.28 113 -96 113 C-96 112.34 -96 111.68 -96 111 C-97.32 110.67 -98.64 110.34 -100 110 C-100 109.34 -100 108.68 -100 108 C-100.99 108 -101.98 108 -103 108 C-103 107.34 -103 106.68 -103 106 C-103.99 106 -104.98 106 -106 106 C-106 105.01 -106 104.02 -106 103 C-106.66 103 -107.32 103 -108 103 C-108 102.34 -108 101.68 -108 101 C-108.99 101 -109.98 101 -111 101 C-111 100.01 -111 99.02 -111 98 C-111.66 98 -112.32 98 -113 98 C-113 97.34 -113 96.68 -113 96 C-113.99 96 -114.98 96 -116 96 C-116 95.01 -116 94.02 -116 93 C-116.66 93 -117.32 93 -118 93 C-118 92.34 -118 91.68 -118 91 C-118.99 91 -119.98 91 -121 91 C-121 90.01 -121 89.02 -121 88 C-121.66 88 -122.32 88 -123 88 C-123 87.34 -123 86.68 -123 86 C-123.99 86 -124.98 86 -126 86 C-126 85.01 -126 84.02 -126 83 C-126.66 83 -127.32 83 -128 83 C-128 82.34 -128 81.68 -128 81 C-128.99 81 -129.98 81 -131 81 C-131 80.01 -131 79.02 -131 78 C-131.66 78 -132.32 78 -133 78 C-133 77.34 -133 76.68 -133 76 C-133.99 76 -134.98 76 -136 76 C-136 75.01 -136 74.02 -136 73 C-136.66 73 -137.32 73 -138 73 C-138 67.06 -138 61.12 -138 55 C-137.34 55 -136.68 55 -136 55 C-135.67 53.35 -135.34 51.7 -135 50 C-134.34 50 -133.68 50 -133 50 C-133 49.34 -133 48.68 -133 48 C-132.01 48 -131.02 48 -130 48 C-130 47.34 -130 46.68 -130 46 C-126.535 45.505 -126.535 45.505 -123 45 C-123 44.34 -123 43.68 -123 43 C-121.35 43 -119.7 43 -118 43 C-118 43.66 -118 44.32 -118 45 C-115.69 45 -113.38 45 -111 45 C-110.67 45.99 -110.34 46.98 -110 48 C-108.68 48 -107.36 48 -106 48 C-104.25 49.375 -104.25 49.375 -103 51 C-103 51.66 -103 52.32 -103 53 C-102.34 53 -101.68 53 -101 53 C-99.375 54.375 -99.375 54.375 -98 56 C-98 56.66 -98 57.32 -98 58 C-97.34 58 -96.68 58 -96 58 C-94.375 59.375 -94.375 59.375 -93 61 C-93 61.66 -93 62.32 -93 63 C-92.34 63 -91.68 63 -91 63 C-89.375 64.375 -89.375 64.375 -88 66 C-88 66.66 -88 67.32 -88 68 C-87.34 68 -86.68 68 -86 68 C-84.375 69.375 -84.375 69.375 -83 71 C-83 71.66 -83 72.32 -83 73 C-82.34 73 -81.68 73 -81 73 C-81 73.66 -81 74.32 -81 75 C-78.36 75 -75.72 75 -73 75 C-73 74.34 -73 73.68 -73 73 C-72.34 73 -71.68 73 -71 73 C-71 72.01 -71 71.02 -71 70 C-70.01 70 -69.02 70 -68 70 C-68 69.34 -68 68.68 -68 68 C-67.34 68 -66.68 68 -66 68 C-66 67.01 -66 66.02 -66 65 C-65.01 65 -64.02 65 -63 65 C-63 64.34 -63 63.68 -63 63 C-62.34 63 -61.68 63 -61 63 C-61 62.01 -61 61.02 -61 60 C-60.01 60 -59.02 60 -58 60 C-58 59.34 -58 58.68 -58 58 C-57.34 58 -56.68 58 -56 58 C-56 57.01 -56 56.02 -56 55 C-55.01 55 -54.02 55 -53 55 C-53 54.34 -53 53.68 -53 53 C-52.34 53 -51.68 53 -51 53 C-51 52.01 -51 51.02 -51 50 C-50.01 50 -49.02 50 -48 50 C-48 49.34 -48 48.68 -48 48 C-47.34 48 -46.68 48 -46 48 C-46 47.01 -46 46.02 -46 45 C-45.01 45 -44.02 45 -43 45 C-43 44.34 -43 43.68 -43 43 C-42.34 43 -41.68 43 -41 43 C-41 42.01 -41 41.02 -41 40 C-40.01 40 -39.02 40 -38 40 C-38 39.34 -38 38.68 -38 38 C-37.34 38 -36.68 38 -36 38 C-36 37.01 -36 36.02 -36 35 C-35.01 35 -34.02 35 -33 35 C-33 34.34 -33 33.68 -33 33 C-32.34 33 -31.68 33 -31 33 C-31 32.01 -31 31.02 -31 30 C-30.01 30 -29.02 30 -28 30 C-28 29.34 -28 28.68 -28 28 C-27.34 28 -26.68 28 -26 28 C-25.67 26.35 -25.34 24.7 -25 23 C-24.34 23 -23.68 23 -23 23 C-23 22.34 -23 21.68 -23 21 C-21.625 19.375 -21.625 19.375 -20 18 C-19.34 18 -18.68 18 -18 18 C-18 17.34 -18 16.68 -18 16 C-16.625 14.375 -16.625 14.375 -15 13 C-14.34 13 -13.68 13 -13 13 C-13 12.34 -13 11.68 -13 11 C-11.625 9.375 -11.625 9.375 -10 8 C-9.34 8 -8.68 8 -8 8 C-8 7.34 -8 6.68 -8 6 C-6.35 5.67 -4.7 5.34 -3 5 C-3 4.34 -3 3.68 -3 3 C-2.34 3 -1.68 3 -1 3 C-0.67 2.01 -0.34 1.02 0 0 Z " fill="#000000" transform="translate(553,627)"/>
<path d="M0 0 C0.99 0 1.98 0 3 0 C3 0.66 3 1.32 3 2 C5.31 2 7.62 2 10 2 C10 2.99 10 3.98 10 5 C11.65 5 13.3 5 15 5 C15 5.99 15 6.98 15 8 C15.66 8 16.32 8 17 8 C17.33 9.32 17.66 10.64 18 12 C18.66 12 19.32 12 20 12 C20 17.94 20 23.88 20 30 C19.34 30 18.68 30 18 30 C18 30.99 18 31.98 18 33 C17.01 33 16.02 33 15 33 C15 33.66 15 34.32 15 35 C14.34 35 13.68 35 13 35 C13 35.99 13 36.98 13 38 C12.01 38 11.02 38 10 38 C10 38.66 10 39.32 10 40 C9.34 40 8.68 40 8 40 C8 40.99 8 41.98 8 43 C7.01 43 6.02 43 5 43 C5 43.66 5 44.32 5 45 C4.34 45 3.68 45 3 45 C3 45.99 3 46.98 3 48 C2.01 48 1.02 48 0 48 C0 48.66 0 49.32 0 50 C-0.66 50 -1.32 50 -2 50 C-2 50.99 -2 51.98 -2 53 C-2.99 53 -3.98 53 -5 53 C-5 53.66 -5 54.32 -5 55 C-5.66 55 -6.32 55 -7 55 C-7 55.99 -7 56.98 -7 58 C-7.99 58 -8.98 58 -10 58 C-10 58.66 -10 59.32 -10 60 C-10.66 60 -11.32 60 -12 60 C-12 60.99 -12 61.98 -12 63 C-12.99 63 -13.98 63 -15 63 C-15 63.66 -15 64.32 -15 65 C-15.66 65 -16.32 65 -17 65 C-17 65.99 -17 66.98 -17 68 C-17.99 68 -18.98 68 -20 68 C-20 68.66 -20 69.32 -20 70 C-20.66 70 -21.32 70 -22 70 C-22 70.99 -22 71.98 -22 73 C-22.99 73 -23.98 73 -25 73 C-25 73.66 -25 74.32 -25 75 C-25.66 75 -26.32 75 -27 75 C-27 75.99 -27 76.98 -27 78 C-27.99 78 -28.98 78 -30 78 C-30 78.66 -30 79.32 -30 80 C-30.66 80 -31.32 80 -32 80 C-32 80.99 -32 81.98 -32 83 C-32.99 83 -33.98 83 -35 83 C-35 83.66 -35 84.32 -35 85 C-35.66 85 -36.32 85 -37 85 C-37 85.99 -37 86.98 -37 88 C-37.99 88 -38.98 88 -40 88 C-40 88.66 -40 89.32 -40 90 C-40.66 90 -41.32 90 -42 90 C-42 90.99 -42 91.98 -42 93 C-42.99 93 -43.98 93 -45 93 C-45 93.66 -45 94.32 -45 95 C-45.66 95 -46.32 95 -47 95 C-47 95.99 -47 96.98 -47 98 C-47.99 98 -48.98 98 -50 98 C-50 99.32 -50 100.64 -50 102 C-51.25 103.75 -51.25 103.75 -53 105 C-54.32 105 -55.64 105 -57 105 C-57 105.99 -57 106.98 -57 108 C-57.99 108 -58.98 108 -60 108 C-60 108.66 -60 109.32 -60 110 C-60.99 110 -61.98 110 -63 110 C-63 110.66 -63 111.32 -63 112 C-64.32 112.33 -65.64 112.66 -67 113 C-67 113.66 -67 114.32 -67 115 C-69.64 115 -72.28 115 -75 115 C-75 115.66 -75 116.32 -75 117 C-78.01877265 118.50938632 -81.13079585 118.14366437 -84.4375 118.125 C-85.11876953 118.12886719 -85.80003906 118.13273437 -86.50195312 118.13671875 C-89.60648046 118.1306374 -92.03329065 117.98890312 -95 117 C-95 116.34 -95 115.68 -95 115 C-97.31 115 -99.62 115 -102 115 C-102 114.34 -102 113.68 -102 113 C-103.65 112.67 -105.3 112.34 -107 112 C-107 111.34 -107 110.68 -107 110 C-107.99 110 -108.98 110 -110 110 C-110 109.34 -110 108.68 -110 108 C-110.99 108 -111.98 108 -113 108 C-113 107.01 -113 106.02 -113 105 C-113.66 105 -114.32 105 -115 105 C-115 104.34 -115 103.68 -115 103 C-115.99 103 -116.98 103 -118 103 C-118 102.01 -118 101.02 -118 100 C-118.66 100 -119.32 100 -120 100 C-120 99.34 -120 98.68 -120 98 C-120.99 98 -121.98 98 -123 98 C-123 97.01 -123 96.02 -123 95 C-123.66 95 -124.32 95 -125 95 C-125 94.34 -125 93.68 -125 93 C-125.99 93 -126.98 93 -128 93 C-128 92.01 -128 91.02 -128 90 C-128.66 90 -129.32 90 -130 90 C-130 89.34 -130 88.68 -130 88 C-130.99 88 -131.98 88 -133 88 C-133 87.01 -133 86.02 -133 85 C-133.66 85 -134.32 85 -135 85 C-135 84.34 -135 83.68 -135 83 C-135.99 83 -136.98 83 -138 83 C-138 82.01 -138 81.02 -138 80 C-138.66 80 -139.32 80 -140 80 C-140 79.34 -140 78.68 -140 78 C-140.99 78 -141.98 78 -143 78 C-143 77.01 -143 76.02 -143 75 C-143.66 75 -144.32 75 -145 75 C-145 68.4 -145 61.8 -145 55 C-144.34 55 -143.68 55 -143 55 C-142.67 54.01 -142.34 53.02 -142 52 C-141.34 52 -140.68 52 -140 52 C-140 51.34 -140 50.68 -140 50 C-139.01 50 -138.02 50 -137 50 C-137 49.34 -137 48.68 -137 48 C-133.535 47.505 -133.535 47.505 -130 47 C-130 46.34 -130 45.68 -130 45 C-127.69 45 -125.38 45 -123 45 C-123 45.66 -123 46.32 -123 47 C-121.02 47 -119.04 47 -117 47 C-117 47.99 -117 48.98 -117 50 C-115.68 50 -114.36 50 -113 50 C-111.25 51.375 -111.25 51.375 -110 53 C-110 53.66 -110 54.32 -110 55 C-109.34 55 -108.68 55 -108 55 C-106.375 56.375 -106.375 56.375 -105 58 C-105 58.66 -105 59.32 -105 60 C-104.34 60 -103.68 60 -103 60 C-101.375 61.375 -101.375 61.375 -100 63 C-100 63.66 -100 64.32 -100 65 C-99.34 65 -98.68 65 -98 65 C-96.375 66.375 -96.375 66.375 -95 68 C-95 68.66 -95 69.32 -95 70 C-94.34 70 -93.68 70 -93 70 C-91.375 71.375 -91.375 71.375 -90 73 C-90 73.66 -90 74.32 -90 75 C-89.34 75 -88.68 75 -88 75 C-88 75.66 -88 76.32 -88 77 C-85.36 77 -82.72 77 -80 77 C-80 76.34 -80 75.68 -80 75 C-79.34 75 -78.68 75 -78 75 C-78 74.01 -78 73.02 -78 72 C-77.01 72 -76.02 72 -75 72 C-75 71.34 -75 70.68 -75 70 C-74.34 70 -73.68 70 -73 70 C-73 69.01 -73 68.02 -73 67 C-72.01 67 -71.02 67 -70 67 C-70 66.34 -70 65.68 -70 65 C-69.34 65 -68.68 65 -68 65 C-68 64.01 -68 63.02 -68 62 C-67.01 62 -66.02 62 -65 62 C-65 60.68 -65 59.36 -65 58 C-63.35 57.67 -61.7 57.34 -60 57 C-60 56.34 -60 55.68 -60 55 C-59.34 55 -58.68 55 -58 55 C-57.67 53.35 -57.34 51.7 -57 50 C-56.34 50 -55.68 50 -55 50 C-55 49.34 -55 48.68 -55 48 C-53.625 46.375 -53.625 46.375 -52 45 C-51.34 45 -50.68 45 -50 45 C-50 44.34 -50 43.68 -50 43 C-48.625 41.375 -48.625 41.375 -47 40 C-46.34 40 -45.68 40 -45 40 C-45 39.34 -45 38.68 -45 38 C-43.625 36.375 -43.625 36.375 -42 35 C-41.34 35 -40.68 35 -40 35 C-40 34.34 -40 33.68 -40 33 C-38.625 31.375 -38.625 31.375 -37 30 C-36.34 30 -35.68 30 -35 30 C-35 29.34 -35 28.68 -35 28 C-33.625 26.375 -33.625 26.375 -32 25 C-31.34 25 -30.68 25 -30 25 C-30 24.34 -30 23.68 -30 23 C-28.625 21.375 -28.625 21.375 -27 20 C-26.34 20 -25.68 20 -25 20 C-25 19.34 -25 18.68 -25 18 C-23.625 16.375 -23.625 16.375 -22 15 C-21.34 15 -20.68 15 -20 15 C-20 14.34 -20 13.68 -20 13 C-18.625 11.375 -18.625 11.375 -17 10 C-16.34 10 -15.68 10 -15 10 C-15 9.34 -15 8.68 -15 8 C-13.75 6.375 -13.75 6.375 -12 5 C-10.68 5 -9.36 5 -8 5 C-7.67 4.01 -7.34 3.02 -7 2 C-4.69 2 -2.38 2 0 2 C0 1.34 0 0.68 0 0 Z " fill="#000000" transform="translate(560,370)"/>
<path d="M0 0 C1.05960938 0.00676758 1.05960938 0.00676758 2.140625 0.01367188 C3.88545275 0.02546125 5.630237 0.04339676 7.375 0.0625 C7.375 1.0525 7.375 2.0425 7.375 3.0625 C9.025 3.0625 10.675 3.0625 12.375 3.0625 C12.375 4.0525 12.375 5.0425 12.375 6.0625 C13.035 6.0625 13.695 6.0625 14.375 6.0625 C14.705 7.3825 15.035 8.7025 15.375 10.0625 C16.035 10.0625 16.695 10.0625 17.375 10.0625 C17.375 16.0025 17.375 21.9425 17.375 28.0625 C16.715 28.0625 16.055 28.0625 15.375 28.0625 C15.375 29.0525 15.375 30.0425 15.375 31.0625 C14.385 31.0625 13.395 31.0625 12.375 31.0625 C12.375 32.3825 12.375 33.7025 12.375 35.0625 C11 36.8125 11 36.8125 9.375 38.0625 C8.715 38.0625 8.055 38.0625 7.375 38.0625 C7.375 38.7225 7.375 39.3825 7.375 40.0625 C6 41.6875 6 41.6875 4.375 43.0625 C3.715 43.0625 3.055 43.0625 2.375 43.0625 C2.375 43.7225 2.375 44.3825 2.375 45.0625 C1 46.6875 1 46.6875 -0.625 48.0625 C-1.285 48.0625 -1.945 48.0625 -2.625 48.0625 C-2.625 48.7225 -2.625 49.3825 -2.625 50.0625 C-4 51.6875 -4 51.6875 -5.625 53.0625 C-6.285 53.0625 -6.945 53.0625 -7.625 53.0625 C-7.625 53.7225 -7.625 54.3825 -7.625 55.0625 C-9 56.6875 -9 56.6875 -10.625 58.0625 C-11.285 58.0625 -11.945 58.0625 -12.625 58.0625 C-12.625 58.7225 -12.625 59.3825 -12.625 60.0625 C-14 61.6875 -14 61.6875 -15.625 63.0625 C-16.285 63.0625 -16.945 63.0625 -17.625 63.0625 C-17.625 63.7225 -17.625 64.3825 -17.625 65.0625 C-19 66.6875 -19 66.6875 -20.625 68.0625 C-21.285 68.0625 -21.945 68.0625 -22.625 68.0625 C-22.625 68.7225 -22.625 69.3825 -22.625 70.0625 C-24 71.6875 -24 71.6875 -25.625 73.0625 C-26.285 73.0625 -26.945 73.0625 -27.625 73.0625 C-27.625 73.7225 -27.625 74.3825 -27.625 75.0625 C-29 76.6875 -29 76.6875 -30.625 78.0625 C-31.285 78.0625 -31.945 78.0625 -32.625 78.0625 C-32.625 78.7225 -32.625 79.3825 -32.625 80.0625 C-34 81.6875 -34 81.6875 -35.625 83.0625 C-36.285 83.0625 -36.945 83.0625 -37.625 83.0625 C-37.625 83.7225 -37.625 84.3825 -37.625 85.0625 C-39 86.6875 -39 86.6875 -40.625 88.0625 C-41.285 88.0625 -41.945 88.0625 -42.625 88.0625 C-42.625 88.7225 -42.625 89.3825 -42.625 90.0625 C-44 91.6875 -44 91.6875 -45.625 93.0625 C-46.285 93.0625 -46.945 93.0625 -47.625 93.0625 C-47.625 93.7225 -47.625 94.3825 -47.625 95.0625 C-49 96.6875 -49 96.6875 -50.625 98.0625 C-51.285 98.0625 -51.945 98.0625 -52.625 98.0625 C-52.625 98.7225 -52.625 99.3825 -52.625 100.0625 C-54 101.6875 -54 101.6875 -55.625 103.0625 C-56.285 103.0625 -56.945 103.0625 -57.625 103.0625 C-57.625 103.7225 -57.625 104.3825 -57.625 105.0625 C-58.875 106.6875 -58.875 106.6875 -60.625 108.0625 C-61.945 108.0625 -63.265 108.0625 -64.625 108.0625 C-65.12 109.5475 -65.12 109.5475 -65.625 111.0625 C-66.945 111.0625 -68.265 111.0625 -69.625 111.0625 C-69.625 111.7225 -69.625 112.3825 -69.625 113.0625 C-71.605 113.0625 -73.585 113.0625 -75.625 113.0625 C-75.625 113.7225 -75.625 114.3825 -75.625 115.0625 C-78.00115986 116.25057993 -79.4761742 116.19164522 -82.125 116.1953125 C-83.4553125 116.19724609 -83.4553125 116.19724609 -84.8125 116.19921875 C-85.740625 116.19535156 -86.66875 116.19148437 -87.625 116.1875 C-89.0171875 116.19330078 -89.0171875 116.19330078 -90.4375 116.19921875 C-91.324375 116.19792969 -92.21125 116.19664062 -93.125 116.1953125 C-93.9396875 116.19418457 -94.754375 116.19305664 -95.59375 116.19189453 C-97.625 116.0625 -97.625 116.0625 -99.625 115.0625 C-99.625 114.4025 -99.625 113.7425 -99.625 113.0625 C-101.605 113.0625 -103.585 113.0625 -105.625 113.0625 C-105.625 112.4025 -105.625 111.7425 -105.625 111.0625 C-107.275 110.7325 -108.925 110.4025 -110.625 110.0625 C-110.625 109.4025 -110.625 108.7425 -110.625 108.0625 C-111.285 108.0625 -111.945 108.0625 -112.625 108.0625 C-112.625 107.4025 -112.625 106.7425 -112.625 106.0625 C-113.615 106.0625 -114.605 106.0625 -115.625 106.0625 C-115.625 105.0725 -115.625 104.0825 -115.625 103.0625 C-116.285 103.0625 -116.945 103.0625 -117.625 103.0625 C-117.625 102.4025 -117.625 101.7425 -117.625 101.0625 C-118.615 101.0625 -119.605 101.0625 -120.625 101.0625 C-120.625 100.0725 -120.625 99.0825 -120.625 98.0625 C-121.285 98.0625 -121.945 98.0625 -122.625 98.0625 C-122.625 97.4025 -122.625 96.7425 -122.625 96.0625 C-123.615 96.0625 -124.605 96.0625 -125.625 96.0625 C-125.625 95.0725 -125.625 94.0825 -125.625 93.0625 C-126.285 93.0625 -126.945 93.0625 -127.625 93.0625 C-127.625 92.4025 -127.625 91.7425 -127.625 91.0625 C-128.615 91.0625 -129.605 91.0625 -130.625 91.0625 C-130.625 90.0725 -130.625 89.0825 -130.625 88.0625 C-131.285 88.0625 -131.945 88.0625 -132.625 88.0625 C-132.625 87.4025 -132.625 86.7425 -132.625 86.0625 C-133.615 86.0625 -134.605 86.0625 -135.625 86.0625 C-135.625 85.0725 -135.625 84.0825 -135.625 83.0625 C-136.285 83.0625 -136.945 83.0625 -137.625 83.0625 C-137.625 82.4025 -137.625 81.7425 -137.625 81.0625 C-138.615 81.0625 -139.605 81.0625 -140.625 81.0625 C-140.625 80.0725 -140.625 79.0825 -140.625 78.0625 C-141.285 78.0625 -141.945 78.0625 -142.625 78.0625 C-142.625 77.4025 -142.625 76.7425 -142.625 76.0625 C-143.615 76.0625 -144.605 76.0625 -145.625 76.0625 C-145.625 75.0725 -145.625 74.0825 -145.625 73.0625 C-146.285 73.0625 -146.945 73.0625 -147.625 73.0625 C-147.625 67.1225 -147.625 61.1825 -147.625 55.0625 C-146.965 55.0625 -146.305 55.0625 -145.625 55.0625 C-145.295 53.7425 -144.965 52.4225 -144.625 51.0625 C-143.965 51.0625 -143.305 51.0625 -142.625 51.0625 C-142.625 50.0725 -142.625 49.0825 -142.625 48.0625 C-140.975 48.0625 -139.325 48.0625 -137.625 48.0625 C-137.625 47.0725 -137.625 46.0825 -137.625 45.0625 C-132.015 45.0625 -126.405 45.0625 -120.625 45.0625 C-120.295 46.0525 -119.965 47.0425 -119.625 48.0625 C-118.965 48.0625 -118.305 48.0625 -117.625 48.0625 C-117.625 48.7225 -117.625 49.3825 -117.625 50.0625 C-116.635 50.0625 -115.645 50.0625 -114.625 50.0625 C-114.625 51.0525 -114.625 52.0425 -114.625 53.0625 C-113.965 53.0625 -113.305 53.0625 -112.625 53.0625 C-112.625 53.7225 -112.625 54.3825 -112.625 55.0625 C-111.635 55.0625 -110.645 55.0625 -109.625 55.0625 C-109.625 56.0525 -109.625 57.0425 -109.625 58.0625 C-108.965 58.0625 -108.305 58.0625 -107.625 58.0625 C-107.625 58.7225 -107.625 59.3825 -107.625 60.0625 C-106.635 60.0625 -105.645 60.0625 -104.625 60.0625 C-104.625 61.0525 -104.625 62.0425 -104.625 63.0625 C-103.965 63.0625 -103.305 63.0625 -102.625 63.0625 C-102.625 63.7225 -102.625 64.3825 -102.625 65.0625 C-101.635 65.0625 -100.645 65.0625 -99.625 65.0625 C-99.625 66.0525 -99.625 67.0425 -99.625 68.0625 C-98.965 68.0625 -98.305 68.0625 -97.625 68.0625 C-97.625 68.7225 -97.625 69.3825 -97.625 70.0625 C-96.635 70.0625 -95.645 70.0625 -94.625 70.0625 C-94.625 71.0525 -94.625 72.0425 -94.625 73.0625 C-93.965 73.0625 -93.305 73.0625 -92.625 73.0625 C-92.625 73.7225 -92.625 74.3825 -92.625 75.0625 C-89.325 75.0625 -86.025 75.0625 -82.625 75.0625 C-82.625 74.4025 -82.625 73.7425 -82.625 73.0625 C-81.965 73.0625 -81.305 73.0625 -80.625 73.0625 C-80.625 72.0725 -80.625 71.0825 -80.625 70.0625 C-79.635 70.0625 -78.645 70.0625 -77.625 70.0625 C-77.625 69.4025 -77.625 68.7425 -77.625 68.0625 C-76.965 68.0625 -76.305 68.0625 -75.625 68.0625 C-75.625 67.0725 -75.625 66.0825 -75.625 65.0625 C-74.635 65.0625 -73.645 65.0625 -72.625 65.0625 C-72.625 64.4025 -72.625 63.7425 -72.625 63.0625 C-71.965 63.0625 -71.305 63.0625 -70.625 63.0625 C-70.625 62.0725 -70.625 61.0825 -70.625 60.0625 C-69.635 60.0625 -68.645 60.0625 -67.625 60.0625 C-67.625 59.4025 -67.625 58.7425 -67.625 58.0625 C-66.965 58.0625 -66.305 58.0625 -65.625 58.0625 C-65.625 57.0725 -65.625 56.0825 -65.625 55.0625 C-64.635 55.0625 -63.645 55.0625 -62.625 55.0625 C-62.625 54.4025 -62.625 53.7425 -62.625 53.0625 C-61.965 53.0625 -61.305 53.0625 -60.625 53.0625 C-60.625 52.0725 -60.625 51.0825 -60.625 50.0625 C-59.635 50.0625 -58.645 50.0625 -57.625 50.0625 C-57.625 49.4025 -57.625 48.7425 -57.625 48.0625 C-56.965 48.0625 -56.305 48.0625 -55.625 48.0625 C-55.625 47.0725 -55.625 46.0825 -55.625 45.0625 C-54.635 45.0625 -53.645 45.0625 -52.625 45.0625 C-52.625 44.4025 -52.625 43.7425 -52.625 43.0625 C-51.965 43.0625 -51.305 43.0625 -50.625 43.0625 C-50.625 42.0725 -50.625 41.0825 -50.625 40.0625 C-49.635 40.0625 -48.645 40.0625 -47.625 40.0625 C-47.625 39.4025 -47.625 38.7425 -47.625 38.0625 C-46.965 38.0625 -46.305 38.0625 -45.625 38.0625 C-45.625 37.0725 -45.625 36.0825 -45.625 35.0625 C-44.635 35.0625 -43.645 35.0625 -42.625 35.0625 C-42.625 34.4025 -42.625 33.7425 -42.625 33.0625 C-41.965 33.0625 -41.305 33.0625 -40.625 33.0625 C-40.625 32.0725 -40.625 31.0825 -40.625 30.0625 C-39.635 30.0625 -38.645 30.0625 -37.625 30.0625 C-37.625 29.4025 -37.625 28.7425 -37.625 28.0625 C-36.965 28.0625 -36.305 28.0625 -35.625 28.0625 C-35.625 27.0725 -35.625 26.0825 -35.625 25.0625 C-34.635 25.0625 -33.645 25.0625 -32.625 25.0625 C-32.625 24.4025 -32.625 23.7425 -32.625 23.0625 C-31.965 23.0625 -31.305 23.0625 -30.625 23.0625 C-30.625 22.0725 -30.625 21.0825 -30.625 20.0625 C-29.635 20.0625 -28.645 20.0625 -27.625 20.0625 C-27.625 19.4025 -27.625 18.7425 -27.625 18.0625 C-26.965 18.0625 -26.305 18.0625 -25.625 18.0625 C-25.625 17.0725 -25.625 16.0825 -25.625 15.0625 C-24.635 15.0625 -23.645 15.0625 -22.625 15.0625 C-22.625 14.4025 -22.625 13.7425 -22.625 13.0625 C-21.965 13.0625 -21.305 13.0625 -20.625 13.0625 C-20.625 12.0725 -20.625 11.0825 -20.625 10.0625 C-19.635 10.0625 -18.645 10.0625 -17.625 10.0625 C-17.625 9.4025 -17.625 8.7425 -17.625 8.0625 C-16.965 8.0625 -16.305 8.0625 -15.625 8.0625 C-15.625 7.0725 -15.625 6.0825 -15.625 5.0625 C-14.635 5.0625 -13.645 5.0625 -12.625 5.0625 C-12.625 4.4025 -12.625 3.7425 -12.625 3.0625 C-11.635 3.0625 -10.645 3.0625 -9.625 3.0625 C-9.625 2.4025 -9.625 1.7425 -9.625 1.0625 C-6.55966836 -0.47016582 -3.35745728 -0.04026471 0 0 Z " fill="#000000" transform="translate(562.625,881.9375)"/>
<path d="M0 0 C53.46 0 106.92 0 162 0 C162 0.66 162 1.32 162 2 C163.423125 1.9690625 163.423125 1.9690625 164.875 1.9375 C168 2 168 2 170 3 C170 3.66 170 4.32 170 5 C170.99 5 171.98 5 173 5 C173 5.66 173 6.32 173 7 C173.66 7 174.32 7 175 7 C175 8.65 175 10.3 175 12 C175.99 12.33 176.98 12.66 178 13 C178.02691685 15.45840605 178.04679802 17.91651882 178.0625 20.375 C178.07087891 21.07367187 178.07925781 21.77234375 178.08789062 22.4921875 C178.11328125 27.7734375 178.11328125 27.7734375 177 30 C176.34 30 175.68 30 175 30 C175 30.99 175 31.98 175 33 C174.34 33 173.68 33 173 33 C173 33.66 173 34.32 173 35 C172.01 35 171.02 35 170 35 C170 35.99 170 36.98 170 38 C168.35 38 166.7 38 165 38 C165 38.66 165 39.32 165 40 C109.89 40 54.78 40 -2 40 C-2 39.34 -2 38.68 -2 38 C-3.65 37.67 -5.3 37.34 -7 37 C-7 36.34 -7 35.68 -7 35 C-7.99 35 -8.98 35 -10 35 C-10 34.34 -10 33.68 -10 33 C-10.99 32.67 -11.98 32.34 -13 32 C-13 30.68 -13 29.36 -13 28 C-13.66 28 -14.32 28 -15 28 C-15 22.72 -15 17.44 -15 12 C-14.34 12 -13.68 12 -13 12 C-12.67 10.68 -12.34 9.36 -12 8 C-11.34 8 -10.68 8 -10 8 C-10 7.01 -10 6.02 -10 5 C-8.35 5 -6.7 5 -5 5 C-5 4.01 -5 3.02 -5 2 C-3.35 2 -1.7 2 0 2 C0 1.34 0 0.68 0 0 Z " fill="#000000" transform="translate(635,685)"/>
<path d="M0 0 C52.14 0 104.28 0 158 0 C158 0.66 158 1.32 158 2 C160.64 2 163.28 2 166 2 C166 2.99 166 3.98 166 5 C167.65 5 169.3 5 171 5 C171 5.99 171 6.98 171 8 C171.66 8 172.32 8 173 8 C173 9.32 173 10.64 173 12 C173.99 12.33 174.98 12.66 176 13 C176.02691685 15.45840605 176.04679802 17.91651882 176.0625 20.375 C176.07087891 21.07367187 176.07925781 21.77234375 176.08789062 22.4921875 C176.11328125 27.7734375 176.11328125 27.7734375 175 30 C174.34 30 173.68 30 173 30 C173 30.99 173 31.98 173 33 C172.34 33 171.68 33 171 33 C171 33.66 171 34.32 171 35 C170.01 35 169.02 35 168 35 C168 35.99 168 36.98 168 38 C166.35 38 164.7 38 163 38 C163 38.66 163 39.32 163 40 C107.56 40 52.12 40 -5 40 C-5 39.34 -5 38.68 -5 38 C-6.65 37.67 -8.3 37.34 -10 37 C-10 36.34 -10 35.68 -10 35 C-10.66 35 -11.32 35 -12 35 C-12 34.34 -12 33.68 -12 33 C-12.99 32.67 -13.98 32.34 -15 32 C-15 30.68 -15 29.36 -15 28 C-15.66 28 -16.32 28 -17 28 C-17 23.05 -17 18.1 -17 13 C-16.34 13 -15.68 13 -15 13 C-14.67 11.35 -14.34 9.7 -14 8 C-13.34 8 -12.68 8 -12 8 C-12 7.01 -12 6.02 -12 5 C-10.35 5 -8.7 5 -7 5 C-7 4.01 -7 3.02 -7 2 C-4.69 2 -2.38 2 0 2 C0 1.34 0 0.68 0 0 Z " fill="#000000" transform="translate(637,940)"/>
</svg>
